999
"DXF R12 Output" (www.mydxf.blogspot.com)
 0 
SECTION
 2 
HEADER
 9 
$ACADVER
 1 
AC1009
 9 
$EXTMIN
 10 
 0 
 20 
 0 
 9 
$EXTMAX
 10 
 8.5 
 20 
 11 
 0 
ENDSEC
 0 
SECTION
 2 
ENTITIES
0
POLYLINE
8
Image
62
7
70
0
10
0.000000
20
0.000000
66
1
0
VERTEX
8
Image
10
122.681559
20
0.008045
70
0
0
VERTEX
8
Image
10
121.861512
20
0.194943
70
0
0
VERTEX
8
Image
10
121.144861
20
0.524863
70
0
0
VERTEX
8
Image
10
120.106374
20
1.464918
70
0
0
VERTEX
8
Image
10
119.504735
20
2.672711
70
0
0
VERTEX
8
Image
10
119.377975
20
4.015090
70
0
0
VERTEX
8
Image
10
119.764127
20
5.358902
70
0
0
VERTEX
8
Image
10
120.169556
20
5.981237
70
0
0
VERTEX
8
Image
10
120.701348
20
6.517738
70
0
0
VERTEX
8
Image
10
121.323644
20
6.938659
70
0
0
VERTEX
8
Image
10
122.000586
20
7.214251
70
0
0
VERTEX
8
Image
10
122.198016
20
7.269292
70
0
0
VERTEX
8
Image
10
122.204842
20
12.438186
70
0
0
VERTEX
8
Image
10
122.211668
20
17.607079
70
0
0
VERTEX
8
Image
10
122.280735
20
17.746779
70
0
0
VERTEX
8
Image
10
138.193815
20
33.727817
70
0
0
VERTEX
8
Image
10
154.177525
20
49.609737
70
0
0
VERTEX
8
Image
10
155.866623
20
49.632994
70
0
0
VERTEX
8
Image
10
157.416021
20
49.615664
70
0
0
VERTEX
8
Image
10
157.504270
20
49.816556
70
0
0
VERTEX
8
Image
10
157.924322
20
50.454713
70
0
0
VERTEX
8
Image
10
158.511415
20
50.902146
70
0
0
VERTEX
8
Image
10
159.209728
20
51.129549
70
0
0
VERTEX
8
Image
10
159.963439
20
51.107616
70
0
0
VERTEX
8
Image
10
160.529508
20
50.909437
70
0
0
VERTEX
8
Image
10
161.009079
20
50.573421
70
0
0
VERTEX
8
Image
10
161.384105
20
50.116317
70
0
0
VERTEX
8
Image
10
161.636538
20
49.554873
70
0
0
VERTEX
8
Image
10
161.704263
20
48.963350
70
0
0
VERTEX
8
Image
10
161.650021
20
48.397460
70
0
0
VERTEX
8
Image
10
161.209468
20
47.552559
70
0
0
VERTEX
8
Image
10
160.491458
20
46.990018
70
0
0
VERTEX
8
Image
10
159.607974
20
46.764911
70
0
0
VERTEX
8
Image
10
158.670996
20
46.932313
70
0
0
VERTEX
8
Image
10
157.956191
20
47.422555
70
0
0
VERTEX
8
Image
10
157.486802
20
48.136751
70
0
0
VERTEX
8
Image
10
157.416876
20
48.321170
70
0
0
VERTEX
8
Image
10
156.044851
20
48.334373
70
0
0
VERTEX
8
Image
10
154.634725
20
48.326806
70
0
0
VERTEX
8
Image
10
139.045431
20
32.753239
70
0
0
VERTEX
8
Image
10
123.494237
20
17.200460
70
0
0
VERTEX
8
Image
10
123.500640
20
12.274322
70
0
0
VERTEX
8
Image
10
123.507043
20
7.348183
70
0
0
VERTEX
8
Image
10
123.748342
20
7.300958
70
0
0
VERTEX
8
Image
10
124.673539
20
6.986355
70
0
0
VERTEX
8
Image
10
125.476331
20
6.448327
70
0
0
VERTEX
8
Image
10
126.113301
20
5.724912
70
0
0
VERTEX
8
Image
10
126.541034
20
4.854147
70
0
0
VERTEX
8
Image
10
126.729922
20
3.602012
70
0
0
VERTEX
8
Image
10
126.499419
20
2.394190
70
0
0
VERTEX
8
Image
10
125.886826
20
1.331146
70
0
0
VERTEX
8
Image
10
124.929441
20
0.513343
70
0
0
VERTEX
8
Image
10
123.722942
20
0.056440
70
0
0
VERTEX
8
Image
10
122.681544
20
0.008053
70
0
0
VERTEX
8
Image
10
122.681559
20
0.008045
70
0
0
SEQEND
8
Image
0
POLYLINE
8
Image
62
7
70
0
10
0.000000
20
0.000000
66
1
0
VERTEX
8
Image
10
123.489077
20
1.581835
70
0
0
VERTEX
8
Image
10
124.382523
20
1.999122
70
0
0
VERTEX
8
Image
10
124.972415
20
2.737962
70
0
0
VERTEX
8
Image
10
125.191059
20
3.659349
70
0
0
VERTEX
8
Image
10
124.970758
20
4.624277
70
0
0
VERTEX
8
Image
10
124.402531
20
5.343768
70
0
0
VERTEX
8
Image
10
123.583258
20
5.762116
70
0
0
VERTEX
8
Image
10
122.471036
20
5.748702
70
0
0
VERTEX
8
Image
10
121.913307
20
5.500272
70
0
0
VERTEX
8
Image
10
121.463663
20
5.130373
70
0
0
VERTEX
8
Image
10
121.134967
20
4.653003
70
0
0
VERTEX
8
Image
10
120.940077
20
4.082163
70
0
0
VERTEX
8
Image
10
120.968355
20
3.129092
70
0
0
VERTEX
8
Image
10
121.201937
20
2.590321
70
0
0
VERTEX
8
Image
10
121.571792
20
2.132932
70
0
0
VERTEX
8
Image
10
122.046005
20
1.787287
70
0
0
VERTEX
8
Image
10
122.592660
20
1.583753
70
0
0
VERTEX
8
Image
10
123.489077
20
1.581901
70
0
0
VERTEX
8
Image
10
123.489077
20
1.581835
70
0
0
SEQEND
8
Image
0
POLYLINE
8
Image
62
7
70
0
10
0.000000
20
0.000000
66
1
0
VERTEX
8
Image
10
131.622348
20
9.583618
70
0
0
VERTEX
8
Image
10
130.812584
20
9.775549
70
0
0
VERTEX
8
Image
10
129.973927
20
10.193873
70
0
0
VERTEX
8
Image
10
129.280224
20
10.796841
70
0
0
VERTEX
8
Image
10
128.756518
20
11.556426
70
0
0
VERTEX
8
Image
10
128.427850
20
12.444602
70
0
0
VERTEX
8
Image
10
128.359447
20
13.238285
70
0
0
VERTEX
8
Image
10
128.516504
20
14.381283
70
0
0
VERTEX
8
Image
10
128.926374
20
15.250705
70
0
0
VERTEX
8
Image
10
129.547145
20
15.977205
70
0
0
VERTEX
8
Image
10
130.340156
20
16.525913
70
0
0
VERTEX
8
Image
10
131.266749
20
16.861958
70
0
0
VERTEX
8
Image
10
132.041448
20
16.920325
70
0
0
VERTEX
8
Image
10
132.831313
20
16.852743
70
0
0
VERTEX
8
Image
10
134.212933
20
16.222948
70
0
0
VERTEX
8
Image
10
134.331117
20
16.146581
70
0
0
VERTEX
8
Image
10
140.765625
20
22.559364
70
0
0
VERTEX
8
Image
10
147.301936
20
29.025301
70
0
0
VERTEX
8
Image
10
153.424056
20
29.114193
70
0
0
VERTEX
8
Image
10
160.616539
20
29.150645
70
0
0
VERTEX
8
Image
10
161.810467
20
29.151439
70
0
0
VERTEX
8
Image
10
161.871125
20
29.310189
70
0
0
VERTEX
8
Image
10
162.458412
20
30.156439
70
0
0
VERTEX
8
Image
10
163.385006
20
30.653410
70
0
0
VERTEX
8
Image
10
164.464504
20
30.653675
70
0
0
VERTEX
8
Image
10
165.402645
20
30.143428
70
0
0
VERTEX
8
Image
10
165.970912
20
29.306808
70
0
0
VERTEX
8
Image
10
166.106612
20
28.307336
70
0
0
VERTEX
8
Image
10
165.747049
20
27.308531
70
0
0
VERTEX
8
Image
10
165.108361
20
26.677853
70
0
0
VERTEX
8
Image
10
164.280074
20
26.356564
70
0
0
VERTEX
8
Image
10
163.359606
20
26.395399
70
0
0
VERTEX
8
Image
10
162.733474
20
26.684862
70
0
0
VERTEX
8
Image
10
162.211067
20
27.145418
70
0
0
VERTEX
8
Image
10
161.837764
20
27.815083
70
0
0
VERTEX
8
Image
10
161.758563
20
27.844942
70
0
0
VERTEX
8
Image
10
160.785751
20
27.853997
70
0
0
VERTEX
8
Image
10
151.588509
20
27.805346
70
0
0
VERTEX
8
Image
10
147.818400
20
27.783333
70
0
0
VERTEX
8
Image
10
141.505912
20
21.470848
70
0
0
VERTEX
8
Image
10
135.193428
20
15.158361
70
0
0
VERTEX
8
Image
10
135.322862
20
14.896826
70
0
0
VERTEX
8
Image
10
135.652532
20
13.923168
70
0
0
VERTEX
8
Image
10
135.639859
20
12.522307
70
0
0
VERTEX
8
Image
10
135.291937
20
11.554219
70
0
0
VERTEX
8
Image
10
134.836597
20
10.873802
70
0
0
VERTEX
8
Image
10
134.250319
20
10.317649
70
0
0
VERTEX
8
Image
10
133.554462
20
9.901953
70
0
0
VERTEX
8
Image
10
132.770390
20
9.642906
70
0
0
VERTEX
8
Image
10
131.622338
20
9.583626
70
0
0
VERTEX
8
Image
10
131.622348
20
9.583618
70
0
0
SEQEND
8
Image
0
POLYLINE
8
Image
62
7
70
0
10
0.000000
20
0.000000
66
1
0
VERTEX
8
Image
10
132.536747
20
11.169021
70
0
0
VERTEX
8
Image
10
133.160302
20
11.434310
70
0
0
VERTEX
8
Image
10
133.679523
20
11.886202
70
0
0
VERTEX
8
Image
10
134.088255
20
12.670030
70
0
0
VERTEX
8
Image
10
134.148918
20
13.527668
70
0
0
VERTEX
8
Image
10
133.876514
20
14.340740
70
0
0
VERTEX
8
Image
10
133.286046
20
14.990867
70
0
0
VERTEX
8
Image
10
132.562193
20
15.331374
70
0
0
VERTEX
8
Image
10
131.793798
20
15.386569
70
0
0
VERTEX
8
Image
10
131.101176
20
15.186989
70
0
0
VERTEX
8
Image
10
130.515251
20
14.762283
70
0
0
VERTEX
8
Image
10
130.143788
20
14.288087
70
0
0
VERTEX
8
Image
10
129.929335
20
13.720884
70
0
0
VERTEX
8
Image
10
129.943331
20
12.730285
70
0
0
VERTEX
8
Image
10
130.168676
20
12.182925
70
0
0
VERTEX
8
Image
10
130.518531
20
11.727403
70
0
0
VERTEX
8
Image
10
130.973330
20
11.383168
70
0
0
VERTEX
8
Image
10
131.513509
20
11.169664
70
0
0
VERTEX
8
Image
10
132.536739
20
11.169135
70
0
0
VERTEX
8
Image
10
132.536747
20
11.169021
70
0
0
SEQEND
8
Image
0
POLYLINE
8
Image
62
7
70
0
10
0.000000
20
0.000000
66
1
0
VERTEX
8
Image
10
102.501285
20
9.990282
70
0
0
VERTEX
8
Image
10
101.705324
20
10.191303
70
0
0
VERTEX
8
Image
10
100.993613
20
10.537551
70
0
0
VERTEX
8
Image
10
100.380271
20
11.020196
70
0
0
VERTEX
8
Image
10
99.879413
20
11.630406
70
0
0
VERTEX
8
Image
10
99.485336
20
12.426924
70
0
0
VERTEX
8
Image
10
99.293642
20
13.283070
70
0
0
VERTEX
8
Image
10
99.308401
20
14.159009
70
0
0
VERTEX
8
Image
10
99.533682
20
15.014901
70
0
0
VERTEX
8
Image
10
99.913555
20
15.732136
70
0
0
VERTEX
8
Image
10
99.973988
20
15.833741
70
0
0
VERTEX
8
Image
10
69.741674
20
46.086796
70
0
0
VERTEX
8
Image
10
39.509359
20
76.319103
70
0
0
VERTEX
8
Image
10
21.902876
20
76.319103
70
0
0
VERTEX
8
Image
10
4.296394
20
76.319103
70
0
0
VERTEX
8
Image
10
4.255933
20
76.198453
70
0
0
VERTEX
8
Image
10
3.869253
20
75.546219
70
0
0
VERTEX
8
Image
10
3.367886
20
75.114612
70
0
0
VERTEX
8
Image
10
2.754242
20
74.842396
70
0
0
VERTEX
8
Image
10
1.654662
20
74.840809
70
0
0
VERTEX
8
Image
10
1.110060
20
75.067128
70
0
0
VERTEX
8
Image
10
0.650935
20
75.418274
70
0
0
VERTEX
8
Image
10
0.297817
20
75.873856
70
0
0
VERTEX
8
Image
10
0.071235
20
76.413482
70
0
0
VERTEX
8
Image
10
0.071764
20
77.525474
70
0
0
VERTEX
8
Image
10
0.502747
20
78.361046
70
0
0
VERTEX
8
Image
10
1.231615
20
78.936183
70
0
0
VERTEX
8
Image
10
2.196814
20
79.149929
70
0
0
VERTEX
8
Image
10
2.775717
20
79.093710
70
0
0
VERTEX
8
Image
10
3.660298
20
78.606299
70
0
0
VERTEX
8
Image
10
4.235643
20
77.786136
70
0
0
VERTEX
8
Image
10
4.305011
20
77.615001
70
0
0
VERTEX
8
Image
10
22.190749
20
77.614736
70
0
0
VERTEX
8
Image
10
40.076487
20
77.614472
70
0
0
VERTEX
8
Image
10
70.489970
20
47.185310
70
0
0
VERTEX
8
Image
10
100.931099
20
16.756151
70
0
0
VERTEX
8
Image
10
101.158513
20
16.870544
70
0
0
VERTEX
8
Image
10
102.091422
20
17.235300
70
0
0
VERTEX
8
Image
10
103.110884
20
17.332294
70
0
0
VERTEX
8
Image
10
104.105317
20
17.158568
70
0
0
VERTEX
8
Image
10
105.007320
20
16.716541
70
0
0
VERTEX
8
Image
10
105.581420
20
16.241469
70
0
0
VERTEX
8
Image
10
106.045207
20
15.660856
70
0
0
VERTEX
8
Image
10
106.387189
20
14.992513
70
0
0
VERTEX
8
Image
10
106.595874
20
14.254254
70
0
0
VERTEX
8
Image
10
106.592196
20
13.035056
70
0
0
VERTEX
8
Image
10
106.234898
20
11.964246
70
0
0
VERTEX
8
Image
10
105.551752
20
11.052459
70
0
0
VERTEX
8
Image
10
104.718851
20
10.414249
70
0
0
VERTEX
8
Image
10
103.735459
20
10.046744
70
0
0
VERTEX
8
Image
10
103.047392
20
9.987454
70
0
0
VERTEX
8
Image
10
102.501293
20
9.990259
70
0
0
VERTEX
8
Image
10
102.501285
20
9.990282
70
0
0
SEQEND
8
Image
0
POLYLINE
8
Image
62
7
70
0
10
0.000000
20
0.000000
66
1
0
VERTEX
8
Image
10
103.492069
20
11.574634
70
0
0
VERTEX
8
Image
10
104.099902
20
11.840211
70
0
0
VERTEX
8
Image
10
104.600677
20
12.270858
70
0
0
VERTEX
8
Image
10
105.044930
20
13.136685
70
0
0
VERTEX
8
Image
10
105.046782
20
14.162309
70
0
0
VERTEX
8
Image
10
104.533833
20
15.099150
70
0
0
VERTEX
8
Image
10
104.086391
20
15.477882
70
0
0
VERTEX
8
Image
10
103.554167
20
15.718803
70
0
0
VERTEX
8
Image
10
102.958363
20
15.778282
70
0
0
VERTEX
8
Image
10
102.418455
20
15.735104
70
0
0
VERTEX
8
Image
10
101.942364
20
15.541273
70
0
0
VERTEX
8
Image
10
101.459765
20
15.168804
70
0
0
VERTEX
8
Image
10
101.086595
20
14.706037
70
0
0
VERTEX
8
Image
10
100.869713
20
14.162309
70
0
0
VERTEX
8
Image
10
100.882942
20
13.091182
70
0
0
VERTEX
8
Image
10
101.127577
20
12.540990
70
0
0
VERTEX
8
Image
10
101.505288
20
12.080211
70
0
0
VERTEX
8
Image
10
101.982730
20
11.740078
70
0
0
VERTEX
8
Image
10
102.526555
20
11.551822
70
0
0
VERTEX
8
Image
10
102.742455
20
11.513137
70
0
0
VERTEX
8
Image
10
103.491939
20
11.574634
70
0
0
VERTEX
8
Image
10
103.492069
20
11.574634
70
0
0
SEQEND
8
Image
0
POLYLINE
8
Image
62
7
70
0
10
0.000000
20
0.000000
66
1
0
VERTEX
8
Image
10
111.962773
20
10.010748
70
0
0
VERTEX
8
Image
10
110.860719
20
10.373824
70
0
0
VERTEX
8
Image
10
109.941740
20
11.053022
70
0
0
VERTEX
8
Image
10
109.294234
20
11.915536
70
0
0
VERTEX
8
Image
10
108.924675
20
12.933485
70
0
0
VERTEX
8
Image
10
108.922823
20
14.368583
70
0
0
VERTEX
8
Image
10
109.299899
20
15.402537
70
0
0
VERTEX
8
Image
10
109.931857
20
16.254364
70
0
0
VERTEX
8
Image
10
110.783171
20
16.888474
70
0
0
VERTEX
8
Image
10
111.818313
20
17.269278
70
0
0
VERTEX
8
Image
10
113.275684
20
17.268749
70
0
0
VERTEX
8
Image
10
114.553596
20
16.746015
70
0
0
VERTEX
8
Image
10
114.642496
20
16.683584
70
0
0
VERTEX
8
Image
10
145.071658
20
47.108023
70
0
0
VERTEX
8
Image
10
175.625965
20
77.573464
70
0
0
VERTEX
8
Image
10
193.266242
20
77.614813
70
0
0
VERTEX
8
Image
10
210.781346
20
77.615078
70
0
0
VERTEX
8
Image
10
210.850714
20
77.786213
70
0
0
VERTEX
8
Image
10
211.391816
20
78.576134
70
0
0
VERTEX
8
Image
10
212.216444
20
79.057383
70
0
0
VERTEX
8
Image
10
213.000567
20
79.160496
70
0
0
VERTEX
8
Image
10
213.747757
20
78.987728
70
0
0
VERTEX
8
Image
10
214.389980
20
78.568086
70
0
0
VERTEX
8
Image
10
214.859202
20
77.930580
70
0
0
VERTEX
8
Image
10
215.078703
20
77.088666
70
0
0
VERTEX
8
Image
10
214.962704
20
76.255846
70
0
0
VERTEX
8
Image
10
214.543839
20
75.527379
70
0
0
VERTEX
8
Image
10
213.854742
20
74.998527
70
0
0
VERTEX
8
Image
10
212.876843
20
74.784995
70
0
0
VERTEX
8
Image
10
212.279944
20
74.855898
70
0
0
VERTEX
8
Image
10
211.412591
20
75.341035
70
0
0
VERTEX
8
Image
10
210.851542
20
76.144970
70
0
0
VERTEX
8
Image
10
210.781346
20
76.318425
70
0
0
VERTEX
8
Image
10
193.458573
20
76.318690
70
0
0
VERTEX
8
Image
10
176.135797
20
76.318954
70
0
0
VERTEX
8
Image
10
145.855350
20
46.038515
70
0
0
VERTEX
8
Image
10
115.574905
20
15.758078
70
0
0
VERTEX
8
Image
10
115.657751
20
15.628406
70
0
0
VERTEX
8
Image
10
116.158239
20
14.385919
70
0
0
VERTEX
8
Image
10
116.170304
20
12.985058
70
0
0
VERTEX
8
Image
10
115.803201
20
11.937746
70
0
0
VERTEX
8
Image
10
115.176537
20
11.073752
70
0
0
VERTEX
8
Image
10
114.325077
20
10.428568
70
0
0
VERTEX
8
Image
10
113.283582
20
10.037688
70
0
0
VERTEX
8
Image
10
111.962784
20
10.010600
70
0
0
VERTEX
8
Image
10
111.962773
20
10.010748
70
0
0
SEQEND
8
Image
0
POLYLINE
8
Image
62
7
70
0
10
0.000000
20
0.000000
66
1
0
VERTEX
8
Image
10
113.071183
20
11.575304
70
0
0
VERTEX
8
Image
10
113.617501
20
11.797217
70
0
0
VERTEX
8
Image
10
114.073762
20
12.150975
70
0
0
VERTEX
8
Image
10
114.419252
20
12.615439
70
0
0
VERTEX
8
Image
10
114.633257
20
13.169469
70
0
0
VERTEX
8
Image
10
114.674587
20
13.733584
70
0
0
VERTEX
8
Image
10
114.581859
20
14.317783
70
0
0
VERTEX
8
Image
10
114.268398
20
14.927204
70
0
0
VERTEX
8
Image
10
113.803469
20
15.391556
70
0
0
VERTEX
8
Image
10
113.219585
20
15.687277
70
0
0
VERTEX
8
Image
10
112.549258
20
15.790802
70
0
0
VERTEX
8
Image
10
111.935556
20
15.707208
70
0
0
VERTEX
8
Image
10
111.392149
20
15.466509
70
0
0
VERTEX
8
Image
10
110.941224
20
15.082638
70
0
0
VERTEX
8
Image
10
110.604970
20
14.569529
70
0
0
VERTEX
8
Image
10
110.405599
20
13.657384
70
0
0
VERTEX
8
Image
10
110.548652
20
12.846974
70
0
0
VERTEX
8
Image
10
111.007581
20
12.162927
70
0
0
VERTEX
8
Image
10
111.960829
20
11.586930
70
0
0
VERTEX
8
Image
10
113.071183
20
11.575304
70
0
0
VERTEX
8
Image
10
113.071183
20
11.575304
70
0
0
SEQEND
8
Image
0
POLYLINE
8
Image
62
7
70
0
10
0.000000
20
0.000000
66
1
0
VERTEX
8
Image
10
64.787801
20
11.473146
70
0
0
VERTEX
8
Image
10
64.049681
20
11.812124
70
0
0
VERTEX
8
Image
10
63.571016
20
12.281603
70
0
0
VERTEX
8
Image
10
63.259170
20
12.826091
70
0
0
VERTEX
8
Image
10
63.211662
20
12.965857
70
0
0
VERTEX
8
Image
10
62.320599
20
12.981573
70
0
0
VERTEX
8
Image
10
59.029240
20
13.016522
70
0
0
VERTEX
8
Image
10
56.514643
20
13.089904
70
0
0
VERTEX
8
Image
10
42.354171
20
27.192903
70
0
0
VERTEX
8
Image
10
28.307997
20
41.241747
70
0
0
VERTEX
8
Image
10
24.737943
20
41.241747
70
0
0
VERTEX
8
Image
10
21.167888
20
41.241747
70
0
0
VERTEX
8
Image
10
21.110760
20
41.004776
70
0
0
VERTEX
8
Image
10
20.727557
20
40.055975
70
0
0
VERTEX
8
Image
10
20.075307
20
39.235149
70
0
0
VERTEX
8
Image
10
19.282333
20
38.649317
70
0
0
VERTEX
8
Image
10
18.363893
20
38.303391
70
0
0
VERTEX
8
Image
10
17.034864
20
38.244262
70
0
0
VERTEX
8
Image
10
15.973284
20
38.559820
70
0
0
VERTEX
8
Image
10
15.066062
20
39.164743
70
0
0
VERTEX
8
Image
10
14.373647
20
40.004438
70
0
0
VERTEX
8
Image
10
13.956488
20
41.024315
70
0
0
VERTEX
8
Image
10
13.896118
20
42.464503
70
0
0
VERTEX
8
Image
10
14.375588
20
43.794444
70
0
0
VERTEX
8
Image
10
15.150228
20
44.702578
70
0
0
VERTEX
8
Image
10
16.138964
20
45.305243
70
0
0
VERTEX
8
Image
10
17.264046
20
45.570515
70
0
0
VERTEX
8
Image
10
18.447725
20
45.466471
70
0
0
VERTEX
8
Image
10
19.361560
20
45.099224
70
0
0
VERTEX
8
Image
10
20.131897
20
44.511433
70
0
0
VERTEX
8
Image
10
20.724853
20
43.736956
70
0
0
VERTEX
8
Image
10
21.106545
20
42.809650
70
0
0
VERTEX
8
Image
10
21.175855
20
42.549845
70
0
0
VERTEX
8
Image
10
24.970518
20
42.537145
70
0
0
VERTEX
8
Image
10
28.854080
20
42.477566
70
0
0
VERTEX
8
Image
10
43.001863
20
28.376486
70
0
0
VERTEX
8
Image
10
57.060742
20
14.322284
70
0
0
VERTEX
8
Image
10
59.562639
20
14.307097
70
0
0
VERTEX
8
Image
10
62.637170
20
14.276381
70
0
0
VERTEX
8
Image
10
63.209805
20
14.260850
70
0
0
VERTEX
8
Image
10
63.279234
20
14.437814
70
0
0
VERTEX
8
Image
10
63.591004
20
14.960871
70
0
0
VERTEX
8
Image
10
64.049792
20
15.400822
70
0
0
VERTEX
8
Image
10
64.553667
20
15.664175
70
0
0
VERTEX
8
Image
10
65.111331
20
15.788138
70
0
0
VERTEX
8
Image
10
65.683158
20
15.769034
70
0
0
VERTEX
8
Image
10
66.229522
20
15.603183
70
0
0
VERTEX
8
Image
10
66.823580
20
15.195535
70
0
0
VERTEX
8
Image
10
67.198442
20
14.729963
70
0
0
VERTEX
8
Image
10
67.423932
20
14.211234
70
0
0
VERTEX
8
Image
10
67.451707
20
13.124043
70
0
0
VERTEX
8
Image
10
66.956730
20
12.153429
70
0
0
VERTEX
8
Image
10
66.528782
20
11.780421
70
0
0
VERTEX
8
Image
10
65.988831
20
11.518858
70
0
0
VERTEX
8
Image
10
65.366532
20
11.431082
70
0
0
VERTEX
8
Image
10
64.787801
20
11.473143
70
0
0
VERTEX
8
Image
10
64.787801
20
11.473146
70
0
0
SEQEND
8
Image
0
POLYLINE
8
Image
62
7
70
0
10
0.000000
20
0.000000
66
1
0
VERTEX
8
Image
10
18.071793
20
39.817999
70
0
0
VERTEX
8
Image
10
18.646800
20
40.061561
70
0
0
VERTEX
8
Image
10
19.122493
20
40.456757
70
0
0
VERTEX
8
Image
10
19.469453
20
40.971061
70
0
0
VERTEX
8
Image
10
19.658259
20
41.571946
70
0
0
VERTEX
8
Image
10
19.628297
20
42.376999
70
0
0
VERTEX
8
Image
10
19.311768
20
43.096670
70
0
0
VERTEX
8
Image
10
18.758413
20
43.657729
70
0
0
VERTEX
8
Image
10
18.017969
20
43.986946
70
0
0
VERTEX
8
Image
10
17.456332
20
44.029089
70
0
0
VERTEX
8
Image
10
16.623995
20
43.834949
70
0
0
VERTEX
8
Image
10
16.033508
20
43.423379
70
0
0
VERTEX
8
Image
10
15.563996
20
42.741032
70
0
0
VERTEX
8
Image
10
15.391851
20
41.959776
70
0
0
VERTEX
8
Image
10
15.519538
20
41.166950
70
0
0
VERTEX
8
Image
10
15.949526
20
40.449895
70
0
0
VERTEX
8
Image
10
16.523859
20
40.006708
70
0
0
VERTEX
8
Image
10
17.228895
20
39.767004
70
0
0
VERTEX
8
Image
10
18.071793
20
39.817999
70
0
0
VERTEX
8
Image
10
18.071793
20
39.817999
70
0
0
SEQEND
8
Image
0
POLYLINE
8
Image
62
7
70
0
10
0.000000
20
0.000000
66
1
0
VERTEX
8
Image
10
206.984051
20
11.500837
70
0
0
VERTEX
8
Image
10
205.889193
20
11.798231
70
0
0
VERTEX
8
Image
10
204.954002
20
12.397377
70
0
0
VERTEX
8
Image
10
204.238924
20
13.245270
70
0
0
VERTEX
8
Image
10
203.804409
20
14.288907
70
0
0
VERTEX
8
Image
10
203.747923
20
14.520515
70
0
0
VERTEX
8
Image
10
198.412744
20
14.527103
70
0
0
VERTEX
8
Image
10
193.077568
20
14.533691
70
0
0
VERTEX
8
Image
10
192.975968
20
14.593619
70
0
0
VERTEX
8
Image
10
186.932861
20
20.608908
70
0
0
VERTEX
8
Image
10
180.951171
20
26.550344
70
0
0
VERTEX
8
Image
10
180.644284
20
26.441133
70
0
0
VERTEX
8
Image
10
179.971185
20
26.345578
70
0
0
VERTEX
8
Image
10
179.004589
20
26.547553
70
0
0
VERTEX
8
Image
10
178.307881
20
27.070496
70
0
0
VERTEX
8
Image
10
177.877828
20
27.819107
70
0
0
VERTEX
8
Image
10
177.770025
20
28.729598
70
0
0
VERTEX
8
Image
10
178.023587
20
29.567716
70
0
0
VERTEX
8
Image
10
178.587909
20
30.240008
70
0
0
VERTEX
8
Image
10
179.412385
20
30.653019
70
0
0
VERTEX
8
Image
10
180.503213
20
30.653188
70
0
0
VERTEX
8
Image
10
181.267032
20
30.281018
70
0
0
VERTEX
8
Image
10
181.827578
20
29.668188
70
0
0
VERTEX
8
Image
10
182.067804
20
29.119580
70
0
0
VERTEX
8
Image
10
182.142882
20
28.526340
70
0
0
VERTEX
8
Image
10
181.986503
20
27.689044
70
0
0
VERTEX
8
Image
10
181.907887
20
27.494337
70
0
0
VERTEX
8
Image
10
182.806379
20
26.589307
70
0
0
VERTEX
8
Image
10
188.632494
20
20.750333
70
0
0
VERTEX
8
Image
10
193.560120
20
15.816389
70
0
0
VERTEX
8
Image
10
198.654187
20
15.816389
70
0
0
VERTEX
8
Image
10
203.748256
20
15.816389
70
0
0
VERTEX
8
Image
10
203.805385
20
16.053361
70
0
0
VERTEX
8
Image
10
204.136683
20
16.913609
70
0
0
VERTEX
8
Image
10
204.671465
20
17.659354
70
0
0
VERTEX
8
Image
10
205.375763
20
18.253859
70
0
0
VERTEX
8
Image
10
206.215614
20
18.660384
70
0
0
VERTEX
8
Image
10
207.529121
20
18.849068
70
0
0
VERTEX
8
Image
10
208.786561
20
18.573195
70
0
0
VERTEX
8
Image
10
209.873700
20
17.879980
70
0
0
VERTEX
8
Image
10
210.676306
20
16.816640
70
0
0
VERTEX
8
Image
10
210.968763
20
16.024286
70
0
0
VERTEX
8
Image
10
211.058261
20
15.155990
70
0
0
VERTEX
8
Image
10
210.891312
20
14.041591
70
0
0
VERTEX
8
Image
10
210.299098
20
12.915379
70
0
0
VERTEX
8
Image
10
209.386284
20
12.074771
70
0
0
VERTEX
8
Image
10
208.249169
20
11.582387
70
0
0
VERTEX
8
Image
10
206.984051
20
11.500845
70
0
0
VERTEX
8
Image
10
206.984051
20
11.500837
70
0
0
SEQEND
8
Image
0
POLYLINE
8
Image
62
7
70
0
10
0.000000
20
0.000000
66
1
0
VERTEX
8
Image
10
207.958904
20
13.095929
70
0
0
VERTEX
8
Image
10
208.506642
20
13.341260
70
0
0
VERTEX
8
Image
10
208.957771
20
13.713320
70
0
0
VERTEX
8
Image
10
209.291542
20
14.189680
70
0
0
VERTEX
8
Image
10
209.487207
20
14.747913
70
0
0
VERTEX
8
Image
10
209.517690
20
15.268613
70
0
0
VERTEX
8
Image
10
209.229106
20
16.260881
70
0
0
VERTEX
8
Image
10
208.457249
20
17.027817
70
0
0
VERTEX
8
Image
10
207.849434
20
17.261515
70
0
0
VERTEX
8
Image
10
207.223125
20
17.307200
70
0
0
VERTEX
8
Image
10
206.611604
20
17.167401
70
0
0
VERTEX
8
Image
10
206.048152
20
16.844649
70
0
0
VERTEX
8
Image
10
205.605110
20
16.364408
70
0
0
VERTEX
8
Image
10
205.316548
20
15.747505
70
0
0
VERTEX
8
Image
10
205.247389
20
15.181382
70
0
0
VERTEX
8
Image
10
205.292265
20
14.660683
70
0
0
VERTEX
8
Image
10
205.610764
20
13.951937
70
0
0
VERTEX
8
Image
10
206.190269
20
13.387489
70
0
0
VERTEX
8
Image
10
206.945951
20
13.062731
70
0
0
VERTEX
8
Image
10
207.958904
20
13.095929
70
0
0
VERTEX
8
Image
10
207.958904
20
13.095929
70
0
0
SEQEND
8
Image
0
POLYLINE
8
Image
62
7
70
0
10
0.000000
20
0.000000
66
1
0
VERTEX
8
Image
10
100.874361
20
17.413645
70
0
0
VERTEX
8
Image
10
100.469814
20
17.835679
70
0
0
VERTEX
8
Image
10
100.265601
20
18.597678
70
0
0
VERTEX
8
Image
10
99.984058
20
20.413776
70
0
0
VERTEX
8
Image
10
99.326804
20
28.891287
70
0
0
VERTEX
8
Image
10
98.615558
20
43.845244
70
0
0
VERTEX
8
Image
10
97.243433
20
82.973894
70
0
0
VERTEX
8
Image
10
95.871279
20
121.619943
70
0
0
VERTEX
8
Image
10
95.315372
20
133.418543
70
0
0
VERTEX
8
Image
10
94.792418
20
141.431918
70
0
0
VERTEX
8
Image
10
94.436263
20
144.772014
70
0
0
VERTEX
8
Image
10
93.966766
20
140.009520
70
0
0
VERTEX
8
Image
10
93.070176
20
124.103100
70
0
0
VERTEX
8
Image
10
91.858542
20
93.718081
70
0
0
VERTEX
8
Image
10
90.689517
20
63.415919
70
0
0
VERTEX
8
Image
10
89.677078
20
43.391796
70
0
0
VERTEX
8
Image
10
89.213611
20
37.442884
70
0
0
VERTEX
8
Image
10
88.759751
20
33.913859
70
0
0
VERTEX
8
Image
10
88.615152
20
33.151860
70
0
0
VERTEX
8
Image
10
88.420829
20
32.771455
70
0
0
VERTEX
8
Image
10
88.108216
20
32.318410
70
0
0
VERTEX
8
Image
10
87.546855
20
32.284136
70
0
0
VERTEX
8
Image
10
87.256838
20
32.562390
70
0
0
VERTEX
8
Image
10
87.062515
20
32.851230
70
0
0
VERTEX
8
Image
10
86.879648
20
33.547967
70
0
0
VERTEX
8
Image
10
86.389888
20
36.905574
70
0
0
VERTEX
8
Image
10
85.878228
20
43.006737
70
0
0
VERTEX
8
Image
10
84.683408
20
64.952617
70
0
0
VERTEX
8
Image
10
83.882592
20
82.719895
70
0
0
VERTEX
8
Image
10
82.481700
20
111.067687
70
0
0
VERTEX
8
Image
10
81.927572
20
119.232729
70
0
0
VERTEX
8
Image
10
81.405114
20
124.502839
70
0
0
VERTEX
8
Image
10
81.120113
20
126.271005
70
0
0
VERTEX
8
Image
10
80.580168
20
122.433083
70
0
0
VERTEX
8
Image
10
79.741294
20
112.208396
70
0
0
VERTEX
8
Image
10
78.523636
20
91.990883
70
0
0
VERTEX
8
Image
10
77.328685
20
72.043221
70
0
0
VERTEX
8
Image
10
76.490916
20
61.307722
70
0
0
VERTEX
8
Image
10
75.921903
20
56.440584
70
0
0
VERTEX
8
Image
10
75.354424
20
53.789331
70
0
0
VERTEX
8
Image
10
75.196319
20
53.344832
70
0
0
VERTEX
8
Image
10
75.009971
20
53.160076
70
0
0
VERTEX
8
Image
10
74.717716
20
52.921768
70
0
0
VERTEX
8
Image
10
74.446666
20
52.864410
70
0
0
VERTEX
8
Image
10
74.177791
20
52.923068
70
0
0
VERTEX
8
Image
10
73.702743
20
53.434647
70
0
0
VERTEX
8
Image
10
73.508618
20
53.969290
70
0
0
VERTEX
8
Image
10
73.070074
20
55.894513
70
0
0
VERTEX
8
Image
10
72.615428
20
59.080319
70
0
0
VERTEX
8
Image
10
71.577909
20
69.892911
70
0
0
VERTEX
8
Image
10
70.865659
20
78.909899
70
0
0
VERTEX
8
Image
10
70.204104
20
87.368089
70
0
0
VERTEX
8
Image
10
69.170795
20
98.846317
70
0
0
VERTEX
8
Image
10
68.289287
20
105.389366
70
0
0
VERTEX
8
Image
10
67.980098
20
106.780071
70
0
0
VERTEX
8
Image
10
67.781934
20
107.307064
70
0
0
VERTEX
8
Image
10
67.233095
20
105.154798
70
0
0
VERTEX
8
Image
10
66.626124
20
101.426971
70
0
0
VERTEX
8
Image
10
65.252576
20
89.920786
70
0
0
VERTEX
8
Image
10
64.145806
20
80.435314
70
0
0
VERTEX
8
Image
10
63.361561
20
75.097727
70
0
0
VERTEX
8
Image
10
62.618673
20
71.707310
70
0
0
VERTEX
8
Image
10
62.243163
20
70.688237
70
0
0
VERTEX
8
Image
10
61.847919
20
70.063294
70
0
0
VERTEX
8
Image
10
61.305955
20
69.727684
70
0
0
VERTEX
8
Image
10
60.927170
20
69.733108
70
0
0
VERTEX
8
Image
10
60.527838
20
69.975503
70
0
0
VERTEX
8
Image
10
60.038058
20
70.666027
70
0
0
VERTEX
8
Image
10
59.546667
20
71.977074
70
0
0
VERTEX
8
Image
10
58.459405
20
76.789002
70
0
0
VERTEX
8
Image
10
57.632175
20
81.500696
70
0
0
VERTEX
8
Image
10
56.526950
20
87.736010
70
0
0
VERTEX
8
Image
10
55.775456
20
91.190784
70
0
0
VERTEX
8
Image
10
55.135580
20
93.293288
70
0
0
VERTEX
8
Image
10
54.551670
20
94.374027
70
0
0
VERTEX
8
Image
10
54.432401
20
94.399427
70
0
0
VERTEX
8
Image
10
53.911265
20
93.604247
70
0
0
VERTEX
8
Image
10
53.144137
20
91.620499
70
0
0
VERTEX
8
Image
10
52.031321
20
87.812588
70
0
0
VERTEX
8
Image
10
50.909121
20
83.951793
70
0
0
VERTEX
8
Image
10
50.232966
20
82.038854
70
0
0
VERTEX
8
Image
10
49.577049
20
80.664535
70
0
0
VERTEX
8
Image
10
48.915626
20
79.784783
70
0
0
VERTEX
8
Image
10
48.222953
20
79.355547
70
0
0
VERTEX
8
Image
10
47.386929
20
79.370231
70
0
0
VERTEX
8
Image
10
46.747432
20
79.740708
70
0
0
VERTEX
8
Image
10
46.101928
20
80.471076
70
0
0
VERTEX
8
Image
10
44.475878
20
83.456494
70
0
0
VERTEX
8
Image
10
43.079626
20
86.181369
70
0
0
VERTEX
8
Image
10
42.071575
20
87.558588
70
0
0
VERTEX
8
Image
10
41.492276
20
87.963012
70
0
0
VERTEX
8
Image
10
40.898810
20
87.987585
70
0
0
VERTEX
8
Image
10
40.214243
20
87.611125
70
0
0
VERTEX
8
Image
10
39.361637
20
86.812449
70
0
0
VERTEX
8
Image
10
38.657066
20
86.034291
70
0
0
VERTEX
8
Image
10
37.372547
20
84.671075
70
0
0
VERTEX
8
Image
10
36.331853
20
83.851721
70
0
0
VERTEX
8
Image
10
35.313353
20
83.400141
70
0
0
VERTEX
8
Image
10
34.272007
20
83.304367
70
0
0
VERTEX
8
Image
10
33.162780
20
83.552431
70
0
0
VERTEX
8
Image
10
31.457577
20
84.409455
70
0
0
VERTEX
8
Image
10
29.346541
20
85.453220
70
0
0
VERTEX
8
Image
10
28.509647
20
85.662833
70
0
0
VERTEX
8
Image
10
27.653257
20
85.706213
70
0
0
VERTEX
8
Image
10
25.399684
20
85.272150
70
0
0
VERTEX
8
Image
10
23.395578
20
84.771364
70
0
0
VERTEX
8
Image
10
21.919889
20
84.574799
70
0
0
VERTEX
8
Image
10
20.485191
20
84.569213
70
0
0
VERTEX
8
Image
10
18.414693
20
84.776988
70
0
0
VERTEX
8
Image
10
15.218564
20
85.064359
70
0
0
VERTEX
8
Image
10
11.620202
20
84.968077
70
0
0
VERTEX
8
Image
10
5.105110
20
84.891592
70
0
0
VERTEX
8
Image
10
1.988514
20
84.929059
70
0
0
VERTEX
8
Image
10
0.426416
20
84.958301
70
0
0
VERTEX
8
Image
10
0.126532
20
85.152475
70
0
0
VERTEX
8
Image
10
-0.000000
20
85.488491
70
0
0
VERTEX
8
Image
10
0.091285
20
85.773018
70
0
0
VERTEX
8
Image
10
0.315419
20
85.973813
70
0
0
VERTEX
8
Image
10
1.904714
20
86.020115
70
0
0
VERTEX
8
Image
10
4.355811
20
85.995800
70
0
0
VERTEX
8
Image
10
7.022808
20
85.955448
70
0
0
VERTEX
8
Image
10
11.634336
20
86.060244
70
0
0
VERTEX
8
Image
10
15.252397
20
86.149155
70
0
0
VERTEX
8
Image
10
18.567093
20
85.857164
70
0
0
VERTEX
8
Image
10
21.157890
20
85.655451
70
0
0
VERTEX
8
Image
10
22.781420
20
85.764557
70
0
0
VERTEX
8
Image
10
24.790909
20
86.237967
70
0
0
VERTEX
8
Image
10
27.447483
20
86.785223
70
0
0
VERTEX
8
Image
10
28.820977
20
86.715139
70
0
0
VERTEX
8
Image
10
30.201371
20
86.297731
70
0
0
VERTEX
8
Image
10
31.877129
20
85.425661
70
0
0
VERTEX
8
Image
10
33.508273
20
84.589742
70
0
0
VERTEX
8
Image
10
34.286847
20
84.397701
70
0
0
VERTEX
8
Image
10
35.006051
20
84.448806
70
0
0
VERTEX
8
Image
10
35.721427
20
84.756966
70
0
0
VERTEX
8
Image
10
36.488514
20
85.336091
70
0
0
VERTEX
8
Image
10
37.907441
20
86.834689
70
0
0
VERTEX
8
Image
10
39.458567
20
88.409270
70
0
0
VERTEX
8
Image
10
40.288022
20
88.929159
70
0
0
VERTEX
8
Image
10
41.084165
20
89.113016
70
0
0
VERTEX
8
Image
10
41.638982
20
89.060457
70
0
0
VERTEX
8
Image
10
42.468508
20
88.658346
70
0
0
VERTEX
8
Image
10
43.274036
20
87.852190
70
0
0
VERTEX
8
Image
10
44.129840
20
86.547627
70
0
0
VERTEX
8
Image
10
45.110192
20
84.650292
70
0
0
VERTEX
8
Image
10
46.333225
20
82.185367
70
0
0
VERTEX
8
Image
10
47.063905
20
81.007992
70
0
0
VERTEX
8
Image
10
47.483442
20
80.555509
70
0
0
VERTEX
8
Image
10
47.821522
20
80.383098
70
0
0
VERTEX
8
Image
10
48.230670
20
80.648365
70
0
0
VERTEX
8
Image
10
48.706418
20
81.335596
70
0
0
VERTEX
8
Image
10
49.652004
20
83.615319
70
0
0
VERTEX
8
Image
10
50.977291
20
88.091988
70
0
0
VERTEX
8
Image
10
51.489460
20
89.920786
70
0
0
VERTEX
8
Image
10
52.710460
20
93.603809
70
0
0
VERTEX
8
Image
10
53.233480
20
94.636744
70
0
0
VERTEX
8
Image
10
53.749346
20
95.251318
70
0
0
VERTEX
8
Image
10
54.161161
20
95.482884
70
0
0
VERTEX
8
Image
10
54.778420
20
95.493255
70
0
0
VERTEX
8
Image
10
55.279453
20
95.193766
70
0
0
VERTEX
8
Image
10
55.967738
20
94.131489
70
0
0
VERTEX
8
Image
10
56.641578
20
92.179360
70
0
0
VERTEX
8
Image
10
57.358554
20
89.130314
70
0
0
VERTEX
8
Image
10
58.176253
20
84.777289
70
0
0
VERTEX
8
Image
10
58.686576
20
81.805493
70
0
0
VERTEX
8
Image
10
59.672652
20
76.250499
70
0
0
VERTEX
8
Image
10
60.339330
20
73.194904
70
0
0
VERTEX
8
Image
10
61.073061
20
71.037200
70
0
0
VERTEX
8
Image
10
61.144462
20
70.924192
70
0
0
VERTEX
8
Image
10
61.246281
20
71.126100
70
0
0
VERTEX
8
Image
10
61.877596
20
73.211705
70
0
0
VERTEX
8
Image
10
62.557613
20
76.941399
70
0
0
VERTEX
8
Image
10
64.211032
20
90.416082
70
0
0
VERTEX
8
Image
10
65.558958
20
101.668268
70
0
0
VERTEX
8
Image
10
66.141671
20
105.257174
70
0
0
VERTEX
8
Image
10
66.686293
20
107.483953
70
0
0
VERTEX
8
Image
10
67.002425
20
108.195152
70
0
0
VERTEX
8
Image
10
67.237390
20
108.542582
70
0
0
VERTEX
8
Image
10
67.486400
20
108.691632
70
0
0
VERTEX
8
Image
10
67.858702
20
108.774523
70
0
0
VERTEX
8
Image
10
68.144338
20
108.698636
70
0
0
VERTEX
8
Image
10
68.435925
20
108.431155
70
0
0
VERTEX
8
Image
10
68.781145
20
107.831957
70
0
0
VERTEX
8
Image
10
69.309903
20
105.852559
70
0
0
VERTEX
8
Image
10
69.844374
20
102.463733
70
0
0
VERTEX
8
Image
10
71.017178
20
90.797082
70
0
0
VERTEX
8
Image
10
71.868841
20
80.078295
70
0
0
VERTEX
8
Image
10
73.191402
20
63.987416
70
0
0
VERTEX
8
Image
10
73.761409
20
58.718326
70
0
0
VERTEX
8
Image
10
74.292038
20
55.300481
70
0
0
VERTEX
8
Image
10
74.470812
20
54.582043
70
0
0
VERTEX
8
Image
10
74.587921
20
55.140842
70
0
0
VERTEX
8
Image
10
75.359004
20
60.950566
70
0
0
VERTEX
8
Image
10
76.199295
20
71.518506
70
0
0
VERTEX
8
Image
10
77.583932
20
94.670577
70
0
0
VERTEX
8
Image
10
78.993690
20
116.951110
70
0
0
VERTEX
8
Image
10
79.538758
20
122.986815
70
0
0
VERTEX
8
Image
10
80.048295
20
126.537734
70
0
0
VERTEX
8
Image
10
80.345964
20
127.633631
70
0
0
VERTEX
8
Image
10
80.564733
20
128.097560
70
0
0
VERTEX
8
Image
10
80.814131
20
128.306122
70
0
0
VERTEX
8
Image
10
81.246015
20
128.391241
70
0
0
VERTEX
8
Image
10
81.707030
20
128.078626
70
0
0
VERTEX
8
Image
10
81.911846
20
127.599225
70
0
0
VERTEX
8
Image
10
82.204070
20
126.467508
70
0
0
VERTEX
8
Image
10
82.754044
20
122.262469
70
0
0
VERTEX
8
Image
10
83.324951
20
115.028525
70
0
0
VERTEX
8
Image
10
84.682567
20
89.171484
70
0
0
VERTEX
8
Image
10
85.191336
20
77.843098
70
0
0
VERTEX
8
Image
10
86.481228
20
50.914245
70
0
0
VERTEX
8
Image
10
87.399692
20
37.749249
70
0
0
VERTEX
8
Image
10
87.783557
20
34.663155
70
0
0
VERTEX
8
Image
10
87.829528
20
34.885405
70
0
0
VERTEX
8
Image
10
88.357312
20
40.216873
70
0
0
VERTEX
8
Image
10
88.893075
20
48.550687
70
0
0
VERTEX
8
Image
10
90.143872
20
77.055699
70
0
0
VERTEX
8
Image
10
90.766349
20
93.692678
70
0
0
VERTEX
8
Image
10
91.528943
20
113.618953
70
0
0
VERTEX
8
Image
10
92.544802
20
135.084287
70
0
0
VERTEX
8
Image
10
92.997177
20
141.547675
70
0
0
VERTEX
8
Image
10
93.430766
20
145.470510
70
0
0
VERTEX
8
Image
10
93.729263
20
146.797991
70
0
0
VERTEX
8
Image
10
93.963789
20
147.328317
70
0
0
VERTEX
8
Image
10
94.306192
20
147.524325
70
0
0
VERTEX
8
Image
10
94.691864
20
147.489263
70
0
0
VERTEX
8
Image
10
95.088661
20
147.027919
70
0
0
VERTEX
8
Image
10
95.312581
20
146.219810
70
0
0
VERTEX
8
Image
10
95.870011
20
141.634780
70
0
0
VERTEX
8
Image
10
96.446839
20
132.706967
70
0
0
VERTEX
8
Image
10
97.789011
20
99.356871
70
0
0
VERTEX
8
Image
10
98.335780
20
82.935792
70
0
0
VERTEX
8
Image
10
99.149095
20
58.691522
70
0
0
VERTEX
8
Image
10
100.033541
20
36.335697
70
0
0
VERTEX
8
Image
10
100.798606
20
23.322069
70
0
0
VERTEX
8
Image
10
101.099260
20
20.346834
70
0
0
VERTEX
8
Image
10
101.612519
20
26.293866
70
0
0
VERTEX
8
Image
10
102.542477
20
45.746997
70
0
0
VERTEX
8
Image
10
103.771453
20
82.503992
70
0
0
VERTEX
8
Image
10
104.889424
20
117.543245
70
0
0
VERTEX
8
Image
10
105.910991
20
142.376414
70
0
0
VERTEX
8
Image
10
106.372212
20
149.656546
70
0
0
VERTEX
8
Image
10
106.818988
20
153.862422
70
0
0
VERTEX
8
Image
10
106.959768
20
154.735943
70
0
0
VERTEX
8
Image
10
107.126394
20
155.094320
70
0
0
VERTEX
8
Image
10
107.422932
20
155.572954
70
0
0
VERTEX
8
Image
10
107.771778
20
155.693608
70
0
0
VERTEX
8
Image
10
108.156680
20
155.526148
70
0
0
VERTEX
8
Image
10
108.377030
20
155.097098
70
0
0
VERTEX
8
Image
10
108.555378
20
154.716099
70
0
0
VERTEX
8
Image
10
108.696348
20
153.823428
70
0
0
VERTEX
8
Image
10
109.083548
20
150.300392
70
0
0
VERTEX
8
Image
10
109.478795
20
144.527549
70
0
0
VERTEX
8
Image
10
110.324438
20
125.696635
70
0
0
VERTEX
8
Image
10
111.695994
20
83.634291
70
0
0
VERTEX
8
Image
10
112.950692
20
45.829480
70
0
0
VERTEX
8
Image
10
113.881651
20
26.281166
70
0
0
VERTEX
8
Image
10
114.337151
20
20.693173
70
0
0
VERTEX
8
Image
10
114.374966
20
20.377790
70
0
0
VERTEX
8
Image
10
114.399117
20
20.416433
70
0
0
VERTEX
8
Image
10
114.474459
20
20.998626
70
0
0
VERTEX
8
Image
10
114.971566
20
27.335264
70
0
0
VERTEX
8
Image
10
115.802869
20
44.552372
70
0
0
VERTEX
8
Image
10
116.877569
20
74.934802
70
0
0
VERTEX
8
Image
10
117.157389
20
83.481891
70
0
0
VERTEX
8
Image
10
117.970172
20
107.561061
70
0
0
VERTEX
8
Image
10
118.983718
20
131.977917
70
0
0
VERTEX
8
Image
10
119.437384
20
139.558602
70
0
0
VERTEX
8
Image
10
119.875022
20
144.429112
70
0
0
VERTEX
8
Image
10
120.152395
20
146.221755
70
0
0
VERTEX
8
Image
10
120.309692
20
146.920254
70
0
0
VERTEX
8
Image
10
120.621651
20
147.371484
70
0
0
VERTEX
8
Image
10
121.000908
20
147.542231
70
0
0
VERTEX
8
Image
10
121.429479
20
147.398651
70
0
0
VERTEX
8
Image
10
121.749534
20
146.753209
70
0
0
VERTEX
8
Image
10
122.031360
20
145.457811
70
0
0
VERTEX
8
Image
10
122.465688
20
141.502291
70
0
0
VERTEX
8
Image
10
122.918246
20
134.985453
70
0
0
VERTEX
8
Image
10
123.938276
20
113.250653
70
0
0
VERTEX
8
Image
10
124.878760
20
88.422185
70
0
0
VERTEX
8
Image
10
126.224761
20
54.926905
70
0
0
VERTEX
8
Image
10
126.735025
20
45.244572
70
0
0
VERTEX
8
Image
10
127.215221
20
38.600148
70
0
0
VERTEX
8
Image
10
127.631233
20
34.752055
70
0
0
VERTEX
8
Image
10
127.667883
20
34.713955
70
0
0
VERTEX
8
Image
10
128.015471
20
37.584149
70
0
0
VERTEX
8
Image
10
128.936022
20
50.729817
70
0
0
VERTEX
8
Image
10
130.199749
20
77.119199
70
0
0
VERTEX
8
Image
10
131.584082
20
106.506962
70
0
0
VERTEX
8
Image
10
132.425868
20
119.593312
70
0
0
VERTEX
8
Image
10
132.821151
20
123.765087
70
0
0
VERTEX
8
Image
10
133.209108
20
126.475705
70
0
0
VERTEX
8
Image
10
133.504295
20
127.614224
70
0
0
VERTEX
8
Image
10
133.709096
20
128.089783
70
0
0
VERTEX
8
Image
10
134.180281
20
128.392016
70
0
0
VERTEX
8
Image
10
134.662171
20
128.265323
70
0
0
VERTEX
8
Image
10
135.063136
20
127.639733
70
0
0
VERTEX
8
Image
10
135.346031
20
126.598334
70
0
0
VERTEX
8
Image
10
136.118597
20
120.405484
70
0
0
VERTEX
8
Image
10
136.993470
20
108.526259
70
0
0
VERTEX
8
Image
10
138.086918
20
89.844583
70
0
0
VERTEX
8
Image
10
139.712931
20
64.470015
70
0
0
VERTEX
8
Image
10
140.259206
20
58.784665
70
0
0
VERTEX
8
Image
10
140.781040
20
55.211727
70
0
0
VERTEX
8
Image
10
140.943311
20
54.640227
70
0
0
VERTEX
8
Image
10
141.092919
20
55.326026
70
0
0
VERTEX
8
Image
10
141.724430
20
59.605500
70
0
0
VERTEX
8
Image
10
142.428810
20
66.679812
70
0
0
VERTEX
8
Image
10
143.498003
20
80.040195
70
0
0
VERTEX
8
Image
10
144.615416
20
93.870478
70
0
0
VERTEX
8
Image
10
145.621826
20
103.246787
70
0
0
VERTEX
8
Image
10
146.092385
20
106.061957
70
0
0
VERTEX
8
Image
10
146.565520
20
107.802360
70
0
0
VERTEX
8
Image
10
146.923733
20
108.434251
70
0
0
VERTEX
8
Image
10
147.231204
20
108.707929
70
0
0
VERTEX
8
Image
10
147.535428
20
108.779989
70
0
0
VERTEX
8
Image
10
147.849298
20
108.703829
70
0
0
VERTEX
8
Image
10
148.335329
20
108.225270
70
0
0
VERTEX
8
Image
10
148.666536
20
107.471161
70
0
0
VERTEX
8
Image
10
149.430180
20
104.030435
70
0
0
VERTEX
8
Image
10
150.302509
20
97.705873
70
0
0
VERTEX
8
Image
10
151.142097
20
90.339882
70
0
0
VERTEX
8
Image
10
152.770459
20
77.004899
70
0
0
VERTEX
8
Image
10
153.450103
20
73.233737
70
0
0
VERTEX
8
Image
10
154.081963
20
71.126873
70
0
0
VERTEX
8
Image
10
154.182393
20
70.925737
70
0
0
VERTEX
8
Image
10
154.256535
20
71.044855
70
0
0
VERTEX
8
Image
10
155.000878
20
73.258404
70
0
0
VERTEX
8
Image
10
155.685522
20
76.446725
70
0
0
VERTEX
8
Image
10
156.742917
20
82.465892
70
0
0
VERTEX
8
Image
10
158.243351
20
90.479582
70
0
0
VERTEX
8
Image
10
159.146926
20
93.674110
70
0
0
VERTEX
8
Image
10
159.597265
20
94.636637
70
0
0
VERTEX
8
Image
10
160.068418
20
95.232726
70
0
0
VERTEX
8
Image
10
160.494119
20
95.482691
70
0
0
VERTEX
8
Image
10
161.187908
20
95.472610
70
0
0
VERTEX
8
Image
10
161.870577
20
94.912332
70
0
0
VERTEX
8
Image
10
162.534670
20
93.730767
70
0
0
VERTEX
8
Image
10
163.235884
20
91.809516
70
0
0
VERTEX
8
Image
10
164.187753
20
88.539326
70
0
0
VERTEX
8
Image
10
166.025954
20
82.542082
70
0
0
VERTEX
8
Image
10
166.770619
20
81.008740
70
0
0
VERTEX
8
Image
10
167.108912
20
80.577103
70
0
0
VERTEX
8
Image
10
167.409421
20
80.392271
70
0
0
VERTEX
8
Image
10
167.913075
20
80.673690
70
0
0
VERTEX
8
Image
10
168.576484
20
81.550866
70
0
0
VERTEX
8
Image
10
169.980274
20
84.292639
70
0
0
VERTEX
8
Image
10
171.334719
20
86.904561
70
0
0
VERTEX
8
Image
10
172.372014
20
88.289772
70
0
0
VERTEX
8
Image
10
172.995310
20
88.798266
70
0
0
VERTEX
8
Image
10
173.648056
20
89.070347
70
0
0
VERTEX
8
Image
10
174.531952
20
89.065204
70
0
0
VERTEX
8
Image
10
175.449990
20
88.655391
70
0
0
VERTEX
8
Image
10
176.288416
20
87.951420
70
0
0
VERTEX
8
Image
10
177.634388
20
86.491030
70
0
0
VERTEX
8
Image
10
179.344194
20
84.857740
70
0
0
VERTEX
8
Image
10
180.030244
20
84.502149
70
0
0
VERTEX
8
Image
10
180.695084
20
84.391252
70
0
0
VERTEX
8
Image
10
181.733774
20
84.601767
70
0
0
VERTEX
8
Image
10
183.374780
20
85.449820
70
0
0
VERTEX
8
Image
10
185.362850
20
86.440710
70
0
0
VERTEX
8
Image
10
186.984857
20
86.786694
70
0
0
VERTEX
8
Image
10
188.349335
20
86.719507
70
0
0
VERTEX
8
Image
10
190.296272
20
86.264026
70
0
0
VERTEX
8
Image
10
192.211606
20
85.798063
70
0
0
VERTEX
8
Image
10
193.712567
20
85.648852
70
0
0
VERTEX
8
Image
10
196.697064
20
85.869252
70
0
0
VERTEX
8
Image
10
199.908790
20
86.153135
70
0
0
VERTEX
8
Image
10
203.491555
20
86.060408
70
0
0
VERTEX
8
Image
10
208.088949
20
85.955380
70
0
0
VERTEX
8
Image
10
210.755946
20
85.995787
70
0
0
VERTEX
8
Image
10
213.194343
20
86.020102
70
0
0
VERTEX
8
Image
10
214.770937
20
85.973800
70
0
0
VERTEX
8
Image
10
214.995072
20
85.773005
70
0
0
VERTEX
8
Image
10
215.086357
20
85.488478
70
0
0
VERTEX
8
Image
10
214.959825
20
85.152461
70
0
0
VERTEX
8
Image
10
214.659939
20
84.958288
70
0
0
VERTEX
8
Image
10
213.097841
20
84.929049
70
0
0
VERTEX
8
Image
10
209.993947
20
84.891531
70
0
0
VERTEX
8
Image
10
203.516955
20
84.967609
70
0
0
VERTEX
8
Image
10
199.941700
20
85.065137
70
0
0
VERTEX
8
Image
10
196.859499
20
84.791291
70
0
0
VERTEX
8
Image
10
193.699867
20
84.557741
70
0
0
VERTEX
8
Image
10
192.100910
20
84.709300
70
0
0
VERTEX
8
Image
10
190.062333
20
85.197183
70
0
0
VERTEX
8
Image
10
188.746874
20
85.537939
70
0
0
VERTEX
8
Image
10
186.938096
20
85.688838
70
0
0
VERTEX
8
Image
10
186.116341
20
85.536486
70
0
0
VERTEX
8
Image
10
185.269922
20
85.225091
70
0
0
VERTEX
8
Image
10
183.755780
20
84.409104
70
0
0
VERTEX
8
Image
10
182.078054
20
83.559694
70
0
0
VERTEX
8
Image
10
180.998590
20
83.310675
70
0
0
VERTEX
8
Image
10
179.999365
20
83.378190
70
0
0
VERTEX
8
Image
10
179.267775
20
83.639951
70
0
0
VERTEX
8
Image
10
178.529092
20
84.100705
70
0
0
VERTEX
8
Image
10
176.783489
20
85.805607
70
0
0
VERTEX
8
Image
10
175.508874
20
87.189309
70
0
0
VERTEX
8
Image
10
174.767096
20
87.796181
70
0
0
VERTEX
8
Image
10
173.972642
20
88.018106
70
0
0
VERTEX
8
Image
10
173.218804
20
87.596646
70
0
0
VERTEX
8
Image
10
172.266669
20
86.335303
70
0
0
VERTEX
8
Image
10
170.953640
20
83.799380
70
0
0
VERTEX
8
Image
10
169.775303
20
81.451921
70
0
0
VERTEX
8
Image
10
168.985029
20
80.230684
70
0
0
VERTEX
8
Image
10
168.405072
20
79.650316
70
0
0
VERTEX
8
Image
10
167.813040
20
79.343178
70
0
0
VERTEX
8
Image
10
167.219661
20
79.312329
70
0
0
VERTEX
8
Image
10
166.635662
20
79.560826
70
0
0
VERTEX
8
Image
10
166.071022
20
80.111318
70
0
0
VERTEX
8
Image
10
165.516774
20
81.008429
70
0
0
VERTEX
8
Image
10
164.363862
20
83.989880
70
0
0
VERTEX
8
Image
10
163.308800
20
87.634775
70
0
0
VERTEX
8
Image
10
162.330391
20
91.051071
70
0
0
VERTEX
8
Image
10
161.567888
20
93.213839
70
0
0
VERTEX
8
Image
10
160.926045
20
94.346717
70
0
0
VERTEX
8
Image
10
160.727793
20
94.359417
70
0
0
VERTEX
8
Image
10
160.161075
20
93.268652
70
0
0
VERTEX
8
Image
10
159.553709
20
91.266971
70
0
0
VERTEX
8
Image
10
158.791658
20
87.766845
70
0
0
VERTEX
8
Image
10
157.695410
20
81.564183
70
0
0
VERTEX
8
Image
10
156.818815
20
76.573089
70
0
0
VERTEX
8
Image
10
155.920754
20
72.469990
70
0
0
VERTEX
8
Image
10
155.516542
20
71.199561
70
0
0
VERTEX
8
Image
10
155.119075
20
70.365385
70
0
0
VERTEX
8
Image
10
154.749239
20
69.935604
70
0
0
VERTEX
8
Image
10
154.465294
20
69.749755
70
0
0
VERTEX
8
Image
10
153.889069
20
69.763725
70
0
0
VERTEX
8
Image
10
153.514038
20
70.029224
70
0
0
VERTEX
8
Image
10
153.139084
20
70.578705
70
0
0
VERTEX
8
Image
10
152.613494
20
72.057142
70
0
0
VERTEX
8
Image
10
152.082867
20
74.485278
70
0
0
VERTEX
8
Image
10
150.913971
20
82.694489
70
0
0
VERTEX
8
Image
10
150.062622
20
90.174780
70
0
0
VERTEX
8
Image
10
149.066886
20
98.821270
70
0
0
VERTEX
8
Image
10
148.399162
20
103.585963
70
0
0
VERTEX
8
Image
10
147.654729
20
107.062089
70
0
0
VERTEX
8
Image
10
147.556203
20
107.337821
70
0
0
VERTEX
8
Image
10
147.502702
20
107.201789
70
0
0
VERTEX
8
Image
10
147.066931
20
105.380018
70
0
0
VERTEX
8
Image
10
146.421713
20
100.898658
70
0
0
VERTEX
8
Image
10
145.720820
20
93.984775
70
0
0
VERTEX
8
Image
10
144.500061
20
78.846394
70
0
0
VERTEX
8
Image
10
143.254589
20
63.740261
70
0
0
VERTEX
8
Image
10
142.533068
20
57.323879
70
0
0
VERTEX
8
Image
10
141.867452
20
53.961268
70
0
0
VERTEX
8
Image
10
141.655596
20
53.415404
70
0
0
VERTEX
8
Image
10
141.350470
20
53.049311
70
0
0
VERTEX
8
Image
10
141.060905
20
52.873260
70
0
0
VERTEX
8
Image
10
140.546608
20
53.004879
70
0
0
VERTEX
8
Image
10
140.248851
20
53.296953
70
0
0
VERTEX
8
Image
10
140.036056
20
53.776626
70
0
0
VERTEX
8
Image
10
139.414564
20
56.764107
70
0
0
VERTEX
8
Image
10
138.776892
20
62.618346
70
0
0
VERTEX
8
Image
10
138.078397
20
71.843165
70
0
0
VERTEX
8
Image
10
137.274434
20
84.942386
70
0
0
VERTEX
8
Image
10
136.994754
20
89.844580
70
0
0
VERTEX
8
Image
10
135.901624
20
108.513557
70
0
0
VERTEX
8
Image
10
135.192831
20
118.461255
70
0
0
VERTEX
8
Image
10
134.567030
20
124.604434
70
0
0
VERTEX
8
Image
10
134.290274
20
126.255432
70
0
0
VERTEX
8
Image
10
133.744103
20
122.115237
70
0
0
VERTEX
8
Image
10
133.259693
20
116.216586
70
0
0
VERTEX
8
Image
10
132.738463
20
107.658707
70
0
0
VERTEX
8
Image
10
131.304941
20
77.423996
70
0
0
VERTEX
8
Image
10
130.191125
20
53.744858
70
0
0
VERTEX
8
Image
10
129.374499
20
40.606742
70
0
0
VERTEX
8
Image
10
128.957538
20
36.139396
70
0
0
VERTEX
8
Image
10
128.547500
20
33.520154
70
0
0
VERTEX
8
Image
10
128.276879
20
32.699611
70
0
0
VERTEX
8
Image
10
127.955220
20
32.321133
70
0
0
VERTEX
8
Image
10
127.647253
20
32.225560
70
0
0
VERTEX
8
Image
10
127.193824
20
32.433451
70
0
0
VERTEX
8
Image
10
126.974503
20
32.840125
70
0
0
VERTEX
8
Image
10
126.681539
20
33.892343
70
0
0
VERTEX
8
Image
10
126.178503
20
37.938498
70
0
0
VERTEX
8
Image
10
125.660003
20
45.043240
70
0
0
VERTEX
8
Image
10
124.498194
20
69.715106
70
0
0
VERTEX
8
Image
10
123.799388
20
88.104683
70
0
0
VERTEX
8
Image
10
122.566889
20
119.981640
70
0
0
VERTEX
8
Image
10
121.857966
20
134.438683
70
0
0
VERTEX
8
Image
10
121.220519
20
143.121011
70
0
0
VERTEX
8
Image
10
121.023685
20
144.787353
70
0
0
VERTEX
8
Image
10
120.908213
20
143.875838
70
0
0
VERTEX
8
Image
10
120.278888
20
135.653505
70
0
0
VERTEX
8
Image
10
119.596104
20
121.543738
70
0
0
VERTEX
8
Image
10
118.224243
20
82.732589
70
0
0
VERTEX
8
Image
10
117.944304
20
74.185500
70
0
0
VERTEX
8
Image
10
116.572717
20
37.024572
70
0
0
VERTEX
8
Image
10
116.021728
20
26.617727
70
0
0
VERTEX
8
Image
10
115.505063
20
20.436022
70
0
0
VERTEX
8
Image
10
115.216326
20
18.576546
70
0
0
VERTEX
8
Image
10
115.049771
20
17.917635
70
0
0
VERTEX
8
Image
10
114.836340
20
17.597287
70
0
0
VERTEX
8
Image
10
114.417030
20
17.364921
70
0
0
VERTEX
8
Image
10
113.953612
20
17.552398
70
0
0
VERTEX
8
Image
10
113.627318
20
18.318273
70
0
0
VERTEX
8
Image
10
113.345402
20
19.876786
70
0
0
VERTEX
8
Image
10
112.962933
20
23.807911
70
0
0
VERTEX
8
Image
10
112.570021
20
29.960471
70
0
0
VERTEX
8
Image
10
111.721799
20
49.496731
70
0
0
VERTEX
8
Image
10
110.629425
20
82.846889
70
0
0
VERTEX
8
Image
10
109.232083
20
125.722032
70
0
0
VERTEX
8
Image
10
108.536682
20
141.784413
70
0
0
VERTEX
8
Image
10
107.897839
20
151.318800
70
0
0
VERTEX
8
Image
10
107.771778
20
152.675582
70
0
0
VERTEX
8
Image
10
107.758708
20
152.717600
70
0
0
VERTEX
8
Image
10
107.618122
20
151.398918
70
0
0
VERTEX
8
Image
10
106.850715
20
139.363875
70
0
0
VERTEX
8
Image
10
105.981591
20
117.568643
70
0
0
VERTEX
8
Image
10
104.888694
20
83.354888
70
0
0
VERTEX
8
Image
10
103.796186
20
50.055530
70
0
0
VERTEX
8
Image
10
102.937298
20
30.212607
70
0
0
VERTEX
8
Image
10
102.536456
20
23.903496
70
0
0
VERTEX
8
Image
10
102.148548
20
19.890325
70
0
0
VERTEX
8
Image
10
101.865616
20
18.328227
70
0
0
VERTEX
8
Image
10
101.672780
20
17.715728
70
0
0
VERTEX
8
Image
10
101.286778
20
17.392942
70
0
0
VERTEX
8
Image
10
100.874356
20
17.413632
70
0
0
VERTEX
8
Image
10
100.874361
20
17.413645
70
0
0
SEQEND
8
Image
0
POLYLINE
8
Image
62
7
70
0
10
0.000000
20
0.000000
66
1
0
VERTEX
8
Image
10
73.661161
20
20.058901
70
0
0
VERTEX
8
Image
10
72.671954
20
20.455576
70
0
0
VERTEX
8
Image
10
71.976902
20
21.264675
70
0
0
VERTEX
8
Image
10
71.761310
20
22.091771
70
0
0
VERTEX
8
Image
10
71.867410
20
22.949283
70
0
0
VERTEX
8
Image
10
72.334420
20
23.729895
70
0
0
VERTEX
8
Image
10
73.085122
20
24.259889
70
0
0
VERTEX
8
Image
10
73.285321
20
24.346802
70
0
0
VERTEX
8
Image
10
73.280902
20
30.628928
70
0
0
VERTEX
8
Image
10
73.276484
20
36.911052
70
0
0
VERTEX
8
Image
10
61.650717
20
48.537888
70
0
0
VERTEX
8
Image
10
50.024951
20
60.164723
70
0
0
VERTEX
8
Image
10
35.594737
20
60.164723
70
0
0
VERTEX
8
Image
10
21.164499
20
60.164723
70
0
0
VERTEX
8
Image
10
21.133967
20
60.009532
70
0
0
VERTEX
8
Image
10
20.812830
20
59.126473
70
0
0
VERTEX
8
Image
10
20.274594
20
58.347592
70
0
0
VERTEX
8
Image
10
19.587331
20
57.747434
70
0
0
VERTEX
8
Image
10
18.772539
20
57.340412
70
0
0
VERTEX
8
Image
10
17.851717
20
57.140944
70
0
0
VERTEX
8
Image
10
16.853015
20
57.190427
70
0
0
VERTEX
8
Image
10
15.900096
20
57.509963
70
0
0
VERTEX
8
Image
10
15.174604
20
57.983836
70
0
0
VERTEX
8
Image
10
14.590160
20
58.599376
70
0
0
VERTEX
8
Image
10
14.161371
20
59.337074
70
0
0
VERTEX
8
Image
10
13.902842
20
60.177423
70
0
0
VERTEX
8
Image
10
13.904245
20
61.447421
70
0
0
VERTEX
8
Image
10
14.397766
20
62.740101
70
0
0
VERTEX
8
Image
10
15.296045
20
63.735329
70
0
0
VERTEX
8
Image
10
16.485167
20
64.345493
70
0
0
VERTEX
8
Image
10
17.851217
20
64.482982
70
0
0
VERTEX
8
Image
10
18.794509
20
64.275341
70
0
0
VERTEX
8
Image
10
19.631265
20
63.845832
70
0
0
VERTEX
8
Image
10
20.328353
20
63.217307
70
0
0
VERTEX
8
Image
10
20.852640
20
62.412620
70
0
0
VERTEX
8
Image
10
21.144673
20
61.568159
70
0
0
VERTEX
8
Image
10
21.162328
20
61.460296
70
0
0
VERTEX
8
Image
10
35.822241
20
61.453867
70
0
0
VERTEX
8
Image
10
50.482153
20
61.447437
70
0
0
VERTEX
8
Image
10
50.583753
20
61.391962
70
0
0
VERTEX
8
Image
10
74.516016
20
37.444467
70
0
0
VERTEX
8
Image
10
74.576785
20
31.030978
70
0
0
VERTEX
8
Image
10
74.595835
20
24.528359
70
0
0
VERTEX
8
Image
10
74.599433
20
24.337632
70
0
0
VERTEX
8
Image
10
74.768322
20
24.277061
70
0
0
VERTEX
8
Image
10
75.158293
20
24.068612
70
0
0
VERTEX
8
Image
10
75.734625
20
23.511470
70
0
0
VERTEX
8
Image
10
76.078143
20
22.778359
70
0
0
VERTEX
8
Image
10
76.075761
20
21.696490
70
0
0
VERTEX
8
Image
10
75.591026
20
20.790224
70
0
0
VERTEX
8
Image
10
74.757117
20
20.198022
70
0
0
VERTEX
8
Image
10
73.661254
20
20.058917
70
0
0
VERTEX
8
Image
10
73.661161
20
20.058901
70
0
0
SEQEND
8
Image
0
POLYLINE
8
Image
62
7
70
0
10
0.000000
20
0.000000
66
1
0
VERTEX
8
Image
10
17.950630
20
58.706238
70
0
0
VERTEX
8
Image
10
18.744319
20
59.041653
70
0
0
VERTEX
8
Image
10
19.325039
20
59.630168
70
0
0
VERTEX
8
Image
10
19.639929
20
60.392081
70
0
0
VERTEX
8
Image
10
19.636131
20
61.247688
70
0
0
VERTEX
8
Image
10
19.401556
20
61.863911
70
0
0
VERTEX
8
Image
10
19.002397
20
62.379899
70
0
0
VERTEX
8
Image
10
18.502013
20
62.728067
70
0
0
VERTEX
8
Image
10
17.938789
20
62.919593
70
0
0
VERTEX
8
Image
10
17.344099
20
62.948506
70
0
0
VERTEX
8
Image
10
16.749317
20
62.808833
70
0
0
VERTEX
8
Image
10
16.011880
20
62.312505
70
0
0
VERTEX
8
Image
10
15.488103
20
61.460121
70
0
0
VERTEX
8
Image
10
15.407515
20
60.812422
70
0
0
VERTEX
8
Image
10
15.488103
20
60.164723
70
0
0
VERTEX
8
Image
10
16.024513
20
59.298878
70
0
0
VERTEX
8
Image
10
16.531797
20
58.914339
70
0
0
VERTEX
8
Image
10
17.119295
20
58.704262
70
0
0
VERTEX
8
Image
10
17.950630
20
58.706114
70
0
0
VERTEX
8
Image
10
17.950630
20
58.706238
70
0
0
SEQEND
8
Image
0
POLYLINE
8
Image
62
7
70
0
10
0.000000
20
0.000000
66
1
0
VERTEX
8
Image
10
54.152446
20
21.517127
70
0
0
VERTEX
8
Image
10
53.093765
20
21.815755
70
0
0
VERTEX
8
Image
10
52.120448
20
22.403170
70
0
0
VERTEX
8
Image
10
49.403911
20
25.100070
70
0
0
VERTEX
8
Image
10
48.914200
20
25.802646
70
0
0
VERTEX
8
Image
10
48.580319
20
26.571785
70
0
0
VERTEX
8
Image
10
48.404309
20
27.401089
70
0
0
VERTEX
8
Image
10
48.388211
20
28.284162
70
0
0
VERTEX
8
Image
10
48.629634
20
29.453181
70
0
0
VERTEX
8
Image
10
49.195475
20
30.497563
70
0
0
VERTEX
8
Image
10
52.803342
20
34.161051
70
0
0
VERTEX
8
Image
10
56.271996
20
37.634039
70
0
0
VERTEX
8
Image
10
55.649057
20
38.263146
70
0
0
VERTEX
8
Image
10
55.014273
20
38.947182
70
0
0
VERTEX
8
Image
10
54.826556
20
39.364515
70
0
0
VERTEX
8
Image
10
54.831470
20
40.064116
70
0
0
VERTEX
8
Image
10
55.176385
20
40.674505
70
0
0
VERTEX
8
Image
10
55.792760
20
41.078131
70
0
0
VERTEX
8
Image
10
56.285300
20
41.134585
70
0
0
VERTEX
8
Image
10
57.006093
20
40.932381
70
0
0
VERTEX
8
Image
10
57.740927
20
40.253169
70
0
0
VERTEX
8
Image
10
58.344912
20
39.656813
70
0
0
VERTEX
8
Image
10
59.696724
20
41.005212
70
0
0
VERTEX
8
Image
10
61.239037
20
42.442917
70
0
0
VERTEX
8
Image
10
61.856238
20
42.587506
70
0
0
VERTEX
8
Image
10
62.718632
20
42.303397
70
0
0
VERTEX
8
Image
10
63.033313
20
41.979206
70
0
0
VERTEX
8
Image
10
63.235869
20
41.559246
70
0
0
VERTEX
8
Image
10
63.281409
20
41.140147
70
0
0
VERTEX
8
Image
10
63.235869
20
40.721047
70
0
0
VERTEX
8
Image
10
62.962338
20
40.225673
70
0
0
VERTEX
8
Image
10
61.711061
20
38.936419
70
0
0
VERTEX
8
Image
10
60.389985
20
37.608988
70
0
0
VERTEX
8
Image
10
62.499156
20
35.494724
70
0
0
VERTEX
8
Image
10
64.690025
20
33.249607
70
0
0
VERTEX
8
Image
10
64.891118
20
32.515971
70
0
0
VERTEX
8
Image
10
64.835111
20
32.012343
70
0
0
VERTEX
8
Image
10
64.441309
20
31.404808
70
0
0
VERTEX
8
Image
10
63.999312
20
31.122312
70
0
0
VERTEX
8
Image
10
63.478915
20
31.030962
70
0
0
VERTEX
8
Image
10
62.803167
20
31.187617
70
0
0
VERTEX
8
Image
10
60.483234
20
33.427158
70
0
0
VERTEX
8
Image
10
58.317731
20
35.589873
70
0
0
VERTEX
8
Image
10
54.949650
20
32.224568
70
0
0
VERTEX
8
Image
10
51.482335
20
28.708696
70
0
0
VERTEX
8
Image
10
51.263683
20
28.003025
70
0
0
VERTEX
8
Image
10
51.426169
20
27.246367
70
0
0
VERTEX
8
Image
10
52.677636
20
25.896057
70
0
0
VERTEX
8
Image
10
53.979329
20
24.645397
70
0
0
VERTEX
8
Image
10
54.764276
20
24.415175
70
0
0
VERTEX
8
Image
10
55.701844
20
24.693289
70
0
0
VERTEX
8
Image
10
56.619873
20
24.944531
70
0
0
VERTEX
8
Image
10
57.371251
20
24.696253
70
0
0
VERTEX
8
Image
10
57.845416
20
24.168626
70
0
0
VERTEX
8
Image
10
57.997451
20
23.512572
70
0
0
VERTEX
8
Image
10
57.886648
20
22.940172
70
0
0
VERTEX
8
Image
10
57.532218
20
22.444866
70
0
0
VERTEX
8
Image
10
56.683443
20
21.866004
70
0
0
VERTEX
8
Image
10
55.549444
20
21.544469
70
0
0
VERTEX
8
Image
10
54.152446
20
21.517127
70
0
0
VERTEX
8
Image
10
54.152446
20
21.517127
70
0
0
SEQEND
8
Image
0
POLYLINE
8
Image
62
7
70
0
10
0.000000
20
0.000000
66
1
0
VERTEX
8
Image
10
168.998213
20
22.784894
70
0
0
VERTEX
8
Image
10
168.788611
20
22.937993
70
0
0
VERTEX
8
Image
10
168.647649
20
23.285990
70
0
0
VERTEX
8
Image
10
168.630099
20
24.811616
70
0
0
VERTEX
8
Image
10
168.630099
20
26.409256
70
0
0
VERTEX
8
Image
10
168.560249
20
26.437899
70
0
0
VERTEX
8
Image
10
167.769140
20
26.916604
70
0
0
VERTEX
8
Image
10
167.267880
20
27.616614
70
0
0
VERTEX
8
Image
10
167.086739
20
28.605265
70
0
0
VERTEX
8
Image
10
167.181533
20
29.208348
70
0
0
VERTEX
8
Image
10
167.768167
20
30.123613
70
0
0
VERTEX
8
Image
10
168.720372
20
30.653180
70
0
0
VERTEX
8
Image
10
169.811197
20
30.653011
70
0
0
VERTEX
8
Image
10
170.532930
20
30.314725
70
0
0
VERTEX
8
Image
10
171.073565
20
29.768984
70
0
0
VERTEX
8
Image
10
171.392038
20
29.075043
70
0
0
VERTEX
8
Image
10
171.447286
20
28.292158
70
0
0
VERTEX
8
Image
10
171.292948
20
27.681633
70
0
0
VERTEX
8
Image
10
170.970722
20
27.138928
70
0
0
VERTEX
8
Image
10
170.072878
20
26.480497
70
0
0
VERTEX
8
Image
10
169.927283
20
26.427411
70
0
0
VERTEX
8
Image
10
169.920034
20
24.823940
70
0
0
VERTEX
8
Image
10
169.895309
20
23.292858
70
0
0
VERTEX
8
Image
10
169.744702
20
22.941549
70
0
0
VERTEX
8
Image
10
169.265090
20
22.725668
70
0
0
VERTEX
8
Image
10
168.998205
20
22.784894
70
0
0
VERTEX
8
Image
10
168.998213
20
22.784894
70
0
0
SEQEND
8
Image
0
POLYLINE
8
Image
62
7
70
0
10
0.000000
20
0.000000
66
1
0
VERTEX
8
Image
10
174.386430
20
22.760897
70
0
0
VERTEX
8
Image
10
174.040406
20
23.070065
70
0
0
VERTEX
8
Image
10
173.976792
20
23.193654
70
0
0
VERTEX
8
Image
10
173.969596
20
24.807256
70
0
0
VERTEX
8
Image
10
173.962399
20
26.420858
70
0
0
VERTEX
8
Image
10
173.805274
20
26.481545
70
0
0
VERTEX
8
Image
10
173.109532
20
26.924369
70
0
0
VERTEX
8
Image
10
172.620167
20
27.605930
70
0
0
VERTEX
8
Image
10
172.428564
20
28.529055
70
0
0
VERTEX
8
Image
10
172.615198
20
29.441565
70
0
0
VERTEX
8
Image
10
173.079245
20
30.096893
70
0
0
VERTEX
8
Image
10
173.735034
20
30.533236
70
0
0
VERTEX
8
Image
10
174.502639
20
30.715839
70
0
0
VERTEX
8
Image
10
175.302131
20
30.609947
70
0
0
VERTEX
8
Image
10
176.203960
20
30.028131
70
0
0
VERTEX
8
Image
10
176.737491
20
29.084759
70
0
0
VERTEX
8
Image
10
176.792236
20
28.516355
70
0
0
VERTEX
8
Image
10
176.723915
20
27.924620
70
0
0
VERTEX
8
Image
10
176.225113
20
27.036744
70
0
0
VERTEX
8
Image
10
175.418619
20
26.480709
70
0
0
VERTEX
8
Image
10
175.260242
20
26.420858
70
0
0
VERTEX
8
Image
10
175.259977
20
24.844234
70
0
0
VERTEX
8
Image
10
175.238625
20
23.296020
70
0
0
VERTEX
8
Image
10
175.081061
20
22.930629
70
0
0
VERTEX
8
Image
10
174.899184
20
22.786170
70
0
0
VERTEX
8
Image
10
174.386544
20
22.760902
70
0
0
VERTEX
8
Image
10
174.386430
20
22.760897
70
0
0
SEQEND
8
Image
0
POLYLINE
8
Image
62
7
70
0
10
0.000000
20
0.000000
66
1
0
VERTEX
8
Image
10
159.117811
20
30.762601
70
0
0
VERTEX
8
Image
10
158.395508
20
31.039460
70
0
0
VERTEX
8
Image
10
157.829123
20
31.524634
70
0
0
VERTEX
8
Image
10
157.459407
20
32.168954
70
0
0
VERTEX
8
Image
10
157.327113
20
32.923249
70
0
0
VERTEX
8
Image
10
157.513349
20
33.811779
70
0
0
VERTEX
8
Image
10
158.018315
20
34.523213
70
0
0
VERTEX
8
Image
10
158.761397
20
34.981967
70
0
0
VERTEX
8
Image
10
159.661979
20
35.112454
70
0
0
VERTEX
8
Image
10
160.700402
20
34.776328
70
0
0
VERTEX
8
Image
10
161.417733
20
34.025400
70
0
0
VERTEX
8
Image
10
161.715160
20
33.029741
70
0
0
VERTEX
8
Image
10
161.493872
20
31.959421
70
0
0
VERTEX
8
Image
10
160.935756
20
31.244780
70
0
0
VERTEX
8
Image
10
160.133810
20
30.814697
70
0
0
VERTEX
8
Image
10
159.117811
20
30.762601
70
0
0
VERTEX
8
Image
10
159.117811
20
30.762601
70
0
0
SEQEND
8
Image
0
POLYLINE
8
Image
62
7
70
0
10
0.000000
20
0.000000
66
1
0
VERTEX
8
Image
10
183.895480
20
30.775301
70
0
0
VERTEX
8
Image
10
183.321459
20
30.985185
70
0
0
VERTEX
8
Image
10
182.813825
20
31.373854
70
0
0
VERTEX
8
Image
10
182.423035
20
31.876481
70
0
0
VERTEX
8
Image
10
182.204744
20
32.469741
70
0
0
VERTEX
8
Image
10
182.174373
20
33.008577
70
0
0
VERTEX
8
Image
10
182.265836
20
33.596351
70
0
0
VERTEX
8
Image
10
182.609628
20
34.248839
70
0
0
VERTEX
8
Image
10
183.150792
20
34.755846
70
0
0
VERTEX
8
Image
10
183.362080
20
34.896433
70
0
0
VERTEX
8
Image
10
183.362080
20
35.599356
70
0
0
VERTEX
8
Image
10
183.362080
20
36.302279
70
0
0
VERTEX
8
Image
10
183.224566
20
36.384529
70
0
0
VERTEX
8
Image
10
182.746107
20
36.773155
70
0
0
VERTEX
8
Image
10
182.395217
20
37.292044
70
0
0
VERTEX
8
Image
10
182.174894
20
38.188120
70
0
0
VERTEX
8
Image
10
182.217616
20
38.764541
70
0
0
VERTEX
8
Image
10
182.437400
20
39.331633
70
0
0
VERTEX
8
Image
10
182.800439
20
39.812380
70
0
0
VERTEX
8
Image
10
183.278832
20
40.178694
70
0
0
VERTEX
8
Image
10
183.844680
20
40.402490
70
0
0
VERTEX
8
Image
10
184.810633
20
40.416089
70
0
0
VERTEX
8
Image
10
185.766597
20
39.944668
70
0
0
VERTEX
8
Image
10
186.387640
20
39.096209
70
0
0
VERTEX
8
Image
10
186.457111
20
38.917647
70
0
0
VERTEX
8
Image
10
190.338840
20
38.904947
70
0
0
VERTEX
8
Image
10
194.309467
20
38.845310
70
0
0
VERTEX
8
Image
10
194.962786
20
38.236650
70
0
0
VERTEX
8
Image
10
195.527207
20
37.674930
70
0
0
VERTEX
8
Image
10
195.623185
20
37.732892
70
0
0
VERTEX
8
Image
10
196.366864
20
38.076120
70
0
0
VERTEX
8
Image
10
197.535263
20
38.253266
70
0
0
VERTEX
8
Image
10
198.246462
20
38.196463
70
0
0
VERTEX
8
Image
10
199.290274
20
37.817191
70
0
0
VERTEX
8
Image
10
200.145653
20
37.181471
70
0
0
VERTEX
8
Image
10
200.779702
20
36.322320
70
0
0
VERTEX
8
Image
10
201.159523
20
35.272754
70
0
0
VERTEX
8
Image
10
201.146532
20
33.827991
70
0
0
VERTEX
8
Image
10
200.871629
20
33.016579
70
0
0
VERTEX
8
Image
10
200.439482
20
32.309701
70
0
0
VERTEX
8
Image
10
199.862310
20
31.723017
70
0
0
VERTEX
8
Image
10
199.152330
20
31.272185
70
0
0
VERTEX
8
Image
10
198.369322
20
30.987035
70
0
0
VERTEX
8
Image
10
197.535270
20
30.900200
70
0
0
VERTEX
8
Image
10
196.721888
20
30.983426
70
0
0
VERTEX
8
Image
10
195.973172
20
31.244356
70
0
0
VERTEX
8
Image
10
195.214923
20
31.717015
70
0
0
VERTEX
8
Image
10
194.379701
20
32.680893
70
0
0
VERTEX
8
Image
10
193.910637
20
33.894298
70
0
0
VERTEX
8
Image
10
193.924395
20
35.320517
70
0
0
VERTEX
8
Image
10
194.452098
20
36.596968
70
0
0
VERTEX
8
Image
10
194.563482
20
36.787765
70
0
0
VERTEX
8
Image
10
194.163057
20
37.209886
70
0
0
VERTEX
8
Image
10
193.762632
20
37.609723
70
0
0
VERTEX
8
Image
10
190.111082
20
37.603294
70
0
0
VERTEX
8
Image
10
186.459535
20
37.596865
70
0
0
VERTEX
8
Image
10
186.376408
20
37.405645
70
0
0
VERTEX
8
Image
10
186.194031
20
37.062746
70
0
0
VERTEX
8
Image
10
185.527444
20
36.407667
70
0
0
VERTEX
8
Image
10
185.343294
20
36.287687
70
0
0
VERTEX
8
Image
10
185.343294
20
35.591569
70
0
0
VERTEX
8
Image
10
185.343294
20
34.895448
70
0
0
VERTEX
8
Image
10
185.501745
20
34.799193
70
0
0
VERTEX
8
Image
10
186.155881
20
34.180572
70
0
0
VERTEX
8
Image
10
186.452130
20
33.569769
70
0
0
VERTEX
8
Image
10
186.551249
20
32.923670
70
0
0
VERTEX
8
Image
10
186.453213
20
32.277438
70
0
0
VERTEX
8
Image
10
186.157998
20
31.666231
70
0
0
VERTEX
8
Image
10
185.563490
20
31.089091
70
0
0
VERTEX
8
Image
10
184.764754
20
30.768301
70
0
0
VERTEX
8
Image
10
183.895549
20
30.775322
70
0
0
VERTEX
8
Image
10
183.895480
20
30.775301
70
0
0
SEQEND
8
Image
0
POLYLINE
8
Image
62
7
70
0
10
0.000000
20
0.000000
66
1
0
VERTEX
8
Image
10
198.089651
20
32.503319
70
0
0
VERTEX
8
Image
10
198.639603
20
32.739535
70
0
0
VERTEX
8
Image
10
199.091014
20
33.099341
70
0
0
VERTEX
8
Image
10
199.427700
20
33.565772
70
0
0
VERTEX
8
Image
10
199.633480
20
34.121861
70
0
0
VERTEX
8
Image
10
199.645201
20
35.006049
70
0
0
VERTEX
8
Image
10
199.420699
20
35.604824
70
0
0
VERTEX
8
Image
10
199.039520
20
36.105186
70
0
0
VERTEX
8
Image
10
198.533065
20
36.476306
70
0
0
VERTEX
8
Image
10
197.932732
20
36.687358
70
0
0
VERTEX
8
Image
10
196.952055
20
36.644855
70
0
0
VERTEX
8
Image
10
196.313819
20
36.343439
70
0
0
VERTEX
8
Image
10
195.821831
20
35.869029
70
0
0
VERTEX
8
Image
10
195.506023
20
35.261707
70
0
0
VERTEX
8
Image
10
195.396323
20
34.561550
70
0
0
VERTEX
8
Image
10
195.633921
20
33.596351
70
0
0
VERTEX
8
Image
10
196.021604
20
33.075652
70
0
0
VERTEX
8
Image
10
196.565107
20
32.664821
70
0
0
VERTEX
8
Image
10
197.183838
20
32.454691
70
0
0
VERTEX
8
Image
10
198.089662
20
32.503319
70
0
0
VERTEX
8
Image
10
198.089651
20
32.503319
70
0
0
SEQEND
8
Image
0
POLYLINE
8
Image
62
7
70
0
10
0.000000
20
0.000000
66
1
0
VERTEX
8
Image
10
159.233651
20
36.086260
70
0
0
VERTEX
8
Image
10
158.649816
20
36.253501
70
0
0
VERTEX
8
Image
10
158.136882
20
36.569052
70
0
0
VERTEX
8
Image
10
157.726965
20
37.006698
70
0
0
VERTEX
8
Image
10
157.452182
20
37.540228
70
0
0
VERTEX
8
Image
10
157.330778
20
38.166490
70
0
0
VERTEX
8
Image
10
157.388230
20
38.781106
70
0
0
VERTEX
8
Image
10
157.617055
20
39.353063
70
0
0
VERTEX
8
Image
10
158.009772
20
39.851345
70
0
0
VERTEX
8
Image
10
158.741297
20
40.322954
70
0
0
VERTEX
8
Image
10
159.623744
20
40.448522
70
0
0
VERTEX
8
Image
10
160.202879
20
40.353505
70
0
0
VERTEX
8
Image
10
161.102027
20
39.792129
70
0
0
VERTEX
8
Image
10
161.636244
20
38.861685
70
0
0
VERTEX
8
Image
10
161.705546
20
38.282651
70
0
0
VERTEX
8
Image
10
161.518518
20
37.365235
70
0
0
VERTEX
8
Image
10
161.044769
20
36.693597
70
0
0
VERTEX
8
Image
10
160.444811
20
36.275135
70
0
0
VERTEX
8
Image
10
159.849594
20
36.098938
70
0
0
VERTEX
8
Image
10
159.233651
20
36.086260
70
0
0
VERTEX
8
Image
10
159.233651
20
36.086260
70
0
0
SEQEND
8
Image
0
POLYLINE
8
Image
62
7
70
0
10
0.000000
20
0.000000
66
1
0
VERTEX
8
Image
10
39.052167
20
36.519443
70
0
0
VERTEX
8
Image
10
38.099711
20
36.803819
70
0
0
VERTEX
8
Image
10
37.210670
20
37.325627
70
0
0
VERTEX
8
Image
10
32.675611
20
41.851346
70
0
0
VERTEX
8
Image
10
32.441289
20
42.587945
70
0
0
VERTEX
8
Image
10
32.524478
20
43.185507
70
0
0
VERTEX
8
Image
10
32.867021
20
43.680572
70
0
0
VERTEX
8
Image
10
33.510088
20
44.060949
70
0
0
VERTEX
8
Image
10
34.261908
20
44.072833
70
0
0
VERTEX
8
Image
10
34.679254
20
43.885107
70
0
0
VERTEX
8
Image
10
35.363383
20
43.250228
70
0
0
VERTEX
8
Image
10
35.992596
20
42.627183
70
0
0
VERTEX
8
Image
10
42.017595
20
48.652185
70
0
0
VERTEX
8
Image
10
48.042595
20
54.677184
70
0
0
VERTEX
8
Image
10
47.430246
20
55.293708
70
0
0
VERTEX
8
Image
10
46.818426
20
55.949170
70
0
0
VERTEX
8
Image
10
46.619223
20
56.368756
70
0
0
VERTEX
8
Image
10
46.605967
20
57.065927
70
0
0
VERTEX
8
Image
10
47.014605
20
57.778227
70
0
0
VERTEX
8
Image
10
47.508333
20
58.119934
70
0
0
VERTEX
8
Image
10
48.107264
20
58.203113
70
0
0
VERTEX
8
Image
10
48.843863
20
57.968668
70
0
0
VERTEX
8
Image
10
53.395236
20
53.408332
70
0
0
VERTEX
8
Image
10
53.957284
20
52.326039
70
0
0
VERTEX
8
Image
10
54.217273
20
51.019700
70
0
0
VERTEX
8
Image
10
54.122746
20
49.740031
70
0
0
VERTEX
8
Image
10
51.728471
20
42.651445
70
0
0
VERTEX
8
Image
10
51.119732
20
41.509518
70
0
0
VERTEX
8
Image
10
49.959436
20
40.153491
70
0
0
VERTEX
8
Image
10
48.501038
20
39.184241
70
0
0
VERTEX
8
Image
10
42.671671
20
37.163888
70
0
0
VERTEX
8
Image
10
40.516499
20
36.516080
70
0
0
VERTEX
8
Image
10
39.052175
20
36.519440
70
0
0
VERTEX
8
Image
10
39.052167
20
36.519443
70
0
0
SEQEND
8
Image
0
POLYLINE
8
Image
62
7
70
0
10
0.000000
20
0.000000
66
1
0
VERTEX
8
Image
10
40.690465
20
39.576816
70
0
0
VERTEX
8
Image
10
46.767680
20
41.600315
70
0
0
VERTEX
8
Image
10
48.113651
20
42.384497
70
0
0
VERTEX
8
Image
10
48.608965
20
42.961511
70
0
0
VERTEX
8
Image
10
48.995197
20
43.646822
70
0
0
VERTEX
8
Image
10
51.259471
20
50.500035
70
0
0
VERTEX
8
Image
10
51.199520
20
51.280870
70
0
0
VERTEX
8
Image
10
50.527937
20
52.187540
70
0
0
VERTEX
8
Image
10
50.091121
20
52.633632
70
0
0
VERTEX
8
Image
10
44.051106
20
46.594946
70
0
0
VERTEX
8
Image
10
38.011092
20
40.556260
70
0
0
VERTEX
8
Image
10
38.391930
20
40.173115
70
0
0
VERTEX
8
Image
10
39.166015
20
39.526396
70
0
0
VERTEX
8
Image
10
39.877666
20
39.397487
70
0
0
VERTEX
8
Image
10
40.690465
20
39.576816
70
0
0
VERTEX
8
Image
10
40.690465
20
39.576816
70
0
0
SEQEND
8
Image
0
POLYLINE
8
Image
62
7
70
0
10
0.000000
20
0.000000
66
1
0
VERTEX
8
Image
10
166.217102
20
40.472345
70
0
0
VERTEX
8
Image
10
164.870083
20
41.740338
70
0
0
VERTEX
8
Image
10
163.637362
20
42.968945
70
0
0
VERTEX
8
Image
10
162.630576
20
42.968945
70
0
0
VERTEX
8
Image
10
161.623790
20
42.968945
70
0
0
VERTEX
8
Image
10
161.583330
20
42.848295
70
0
0
VERTEX
8
Image
10
160.920812
20
41.919683
70
0
0
VERTEX
8
Image
10
160.083010
20
41.483335
70
0
0
VERTEX
8
Image
10
159.104436
20
41.455760
70
0
0
VERTEX
8
Image
10
158.532330
20
41.656048
70
0
0
VERTEX
8
Image
10
158.034116
20
42.000904
70
0
0
VERTEX
8
Image
10
157.532580
20
42.693522
70
0
0
VERTEX
8
Image
10
157.342324
20
43.629344
70
0
0
VERTEX
8
Image
10
157.412343
20
44.221354
70
0
0
VERTEX
8
Image
10
157.996634
20
45.191957
70
0
0
VERTEX
8
Image
10
158.990811
20
45.744100
70
0
0
VERTEX
8
Image
10
160.070310
20
45.741084
70
0
0
VERTEX
8
Image
10
160.831044
20
45.375730
70
0
0
VERTEX
8
Image
10
161.401104
20
44.748556
70
0
0
VERTEX
8
Image
10
161.568720
20
44.417248
70
0
0
VERTEX
8
Image
10
161.625222
20
44.266163
70
0
0
VERTEX
8
Image
10
162.860713
20
44.258914
70
0
0
VERTEX
8
Image
10
164.096205
20
44.251664
70
0
0
VERTEX
8
Image
10
164.226168
20
44.179624
70
0
0
VERTEX
8
Image
10
165.689820
20
42.769925
70
0
0
VERTEX
8
Image
10
167.068014
20
41.295404
70
0
0
VERTEX
8
Image
10
167.085073
20
40.913040
70
0
0
VERTEX
8
Image
10
166.911039
20
40.611752
70
0
0
VERTEX
8
Image
10
166.602764
20
40.446531
70
0
0
VERTEX
8
Image
10
166.217102
20
40.472366
70
0
0
VERTEX
8
Image
10
166.217102
20
40.472345
70
0
0
SEQEND
8
Image
0
POLYLINE
8
Image
62
7
70
0
10
0.000000
20
0.000000
66
1
0
VERTEX
8
Image
10
183.911326
20
41.459565
70
0
0
VERTEX
8
Image
10
183.341707
20
41.664963
70
0
0
VERTEX
8
Image
10
182.860629
20
42.012893
70
0
0
VERTEX
8
Image
10
182.452384
20
42.518213
70
0
0
VERTEX
8
Image
10
182.219288
20
43.100572
70
0
0
VERTEX
8
Image
10
182.204286
20
44.061765
70
0
0
VERTEX
8
Image
10
182.632040
20
44.970476
70
0
0
VERTEX
8
Image
10
183.415124
20
45.596746
70
0
0
VERTEX
8
Image
10
184.352669
20
45.796093
70
0
0
VERTEX
8
Image
10
184.898768
20
45.741015
70
0
0
VERTEX
8
Image
10
185.784395
20
45.275875
70
0
0
VERTEX
8
Image
10
186.372135
20
44.478033
70
0
0
VERTEX
8
Image
10
186.459509
20
44.277043
70
0
0
VERTEX
8
Image
10
194.670927
20
44.270667
70
0
0
VERTEX
8
Image
10
202.882345
20
44.264264
70
0
0
VERTEX
8
Image
10
203.387346
20
44.769742
70
0
0
VERTEX
8
Image
10
203.892351
20
45.275217
70
0
0
VERTEX
8
Image
10
203.839286
20
45.349739
70
0
0
VERTEX
8
Image
10
203.335250
20
46.664637
70
0
0
VERTEX
8
Image
10
203.336044
20
47.947336
70
0
0
VERTEX
8
Image
10
203.588554
20
48.772927
70
0
0
VERTEX
8
Image
10
204.017775
20
49.507521
70
0
0
VERTEX
8
Image
10
204.604114
20
50.125027
70
0
0
VERTEX
8
Image
10
205.327975
20
50.599360
70
0
0
VERTEX
8
Image
10
206.144539
20
50.893466
70
0
0
VERTEX
8
Image
10
206.996406
20
50.986618
70
0
0
VERTEX
8
Image
10
207.848910
20
50.879107
70
0
0
VERTEX
8
Image
10
208.667386
20
50.571224
70
0
0
VERTEX
8
Image
10
209.372829
20
50.092964
70
0
0
VERTEX
8
Image
10
209.946336
20
49.468421
70
0
0
VERTEX
8
Image
10
210.364491
20
48.729782
70
0
0
VERTEX
8
Image
10
210.603877
20
47.909236
70
0
0
VERTEX
8
Image
10
210.604136
20
46.690037
70
0
0
VERTEX
8
Image
10
210.304569
20
45.742816
70
0
0
VERTEX
8
Image
10
209.778667
20
44.921442
70
0
0
VERTEX
8
Image
10
209.061908
20
44.268020
70
0
0
VERTEX
8
Image
10
208.189769
20
43.824654
70
0
0
VERTEX
8
Image
10
207.365868
20
43.640813
70
0
0
VERTEX
8
Image
10
206.532168
20
43.644570
70
0
0
VERTEX
8
Image
10
205.724515
20
43.831752
70
0
0
VERTEX
8
Image
10
204.978760
20
44.198189
70
0
0
VERTEX
8
Image
10
204.779516
20
44.315140
70
0
0
VERTEX
8
Image
10
204.151658
20
43.702908
70
0
0
VERTEX
8
Image
10
203.415257
20
43.030058
70
0
0
VERTEX
8
Image
10
203.288257
20
42.969439
70
0
0
VERTEX
8
Image
10
194.872139
20
42.969191
70
0
0
VERTEX
8
Image
10
186.456024
20
42.968942
70
0
0
VERTEX
8
Image
10
186.441842
20
42.914729
70
0
0
VERTEX
8
Image
10
186.061065
20
42.231999
70
0
0
VERTEX
8
Image
10
185.546480
20
41.767061
70
0
0
VERTEX
8
Image
10
184.886354
20
41.478665
70
0
0
VERTEX
8
Image
10
183.911225
20
41.459562
70
0
0
VERTEX
8
Image
10
183.911326
20
41.459565
70
0
0
SEQEND
8
Image
0
POLYLINE
8
Image
62
7
70
0
10
0.000000
20
0.000000
66
1
0
VERTEX
8
Image
10
207.492050
20
45.217106
70
0
0
VERTEX
8
Image
10
208.325079
20
45.636407
70
0
0
VERTEX
8
Image
10
208.888842
20
46.359840
70
0
0
VERTEX
8
Image
10
209.108604
20
47.185339
70
0
0
VERTEX
8
Image
10
208.977143
20
48.053230
70
0
0
VERTEX
8
Image
10
208.495349
20
48.799084
70
0
0
VERTEX
8
Image
10
207.749246
20
49.303933
70
0
0
VERTEX
8
Image
10
206.857051
20
49.438705
70
0
0
VERTEX
8
Image
10
206.195545
20
49.301816
70
0
0
VERTEX
8
Image
10
205.624764
20
48.973107
70
0
0
VERTEX
8
Image
10
205.177348
20
48.478955
70
0
0
VERTEX
8
Image
10
204.885937
20
47.845739
70
0
0
VERTEX
8
Image
10
204.839502
20
47.286939
70
0
0
VERTEX
8
Image
10
204.921449
20
46.651940
70
0
0
VERTEX
8
Image
10
205.189336
20
46.108093
70
0
0
VERTEX
8
Image
10
205.585919
20
45.665840
70
0
0
VERTEX
8
Image
10
206.086542
20
45.346121
70
0
0
VERTEX
8
Image
10
206.666551
20
45.169876
70
0
0
VERTEX
8
Image
10
207.492050
20
45.217106
70
0
0
VERTEX
8
Image
10
207.492050
20
45.217106
70
0
0
SEQEND
8
Image
0
POLYLINE
8
Image
62
7
70
0
10
0.000000
20
0.000000
66
1
0
VERTEX
8
Image
10
170.971174
20
45.041669
70
0
0
VERTEX
8
Image
10
170.672216
20
45.359031
70
0
0
VERTEX
8
Image
10
170.648833
20
45.804938
70
0
0
VERTEX
8
Image
10
172.328043
20
47.592485
70
0
0
VERTEX
8
Image
10
173.964685
20
49.231526
70
0
0
VERTEX
8
Image
10
173.958044
20
50.241117
70
0
0
VERTEX
8
Image
10
173.951403
20
51.250705
70
0
0
VERTEX
8
Image
10
173.750415
20
51.338073
70
0
0
VERTEX
8
Image
10
173.059242
20
51.809575
70
0
0
VERTEX
8
Image
10
172.595060
20
52.484162
70
0
0
VERTEX
8
Image
10
172.429498
20
53.357532
70
0
0
VERTEX
8
Image
10
172.581241
20
54.199144
70
0
0
VERTEX
8
Image
10
173.041697
20
54.885790
70
0
0
VERTEX
8
Image
10
173.721724
20
55.365486
70
0
0
VERTEX
8
Image
10
174.623162
20
55.545231
70
0
0
VERTEX
8
Image
10
175.530220
20
55.351993
70
0
0
VERTEX
8
Image
10
176.026319
20
55.030438
70
0
0
VERTEX
8
Image
10
176.425566
20
54.593830
70
0
0
VERTEX
8
Image
10
176.748379
20
53.878228
70
0
0
VERTEX
8
Image
10
176.748114
20
52.836830
70
0
0
VERTEX
8
Image
10
176.514940
20
52.267053
70
0
0
VERTEX
8
Image
10
176.142965
20
51.791888
70
0
0
VERTEX
8
Image
10
175.473192
20
51.338081
70
0
0
VERTEX
8
Image
10
175.272201
20
51.250723
70
0
0
VERTEX
8
Image
10
175.259501
20
50.011779
70
0
0
VERTEX
8
Image
10
175.191350
20
48.671235
70
0
0
VERTEX
8
Image
10
171.520173
20
45.014521
70
0
0
VERTEX
8
Image
10
170.971185
20
45.041667
70
0
0
VERTEX
8
Image
10
170.971174
20
45.041669
70
0
0
SEQEND
8
Image
0
POLYLINE
8
Image
62
7
70
0
10
0.000000
20
0.000000
66
1
0
VERTEX
8
Image
10
184.040593
20
46.779501
70
0
0
VERTEX
8
Image
10
183.450933
20
46.956543
70
0
0
VERTEX
8
Image
10
182.943431
20
47.277423
70
0
0
VERTEX
8
Image
10
182.541640
20
47.722305
70
0
0
VERTEX
8
Image
10
182.269114
20
48.271355
70
0
0
VERTEX
8
Image
10
182.174320
20
48.874437
70
0
0
VERTEX
8
Image
10
182.216174
20
49.453591
70
0
0
VERTEX
8
Image
10
182.523770
20
50.167089
70
0
0
VERTEX
8
Image
10
183.058934
20
50.727971
70
0
0
VERTEX
8
Image
10
183.617825
20
51.028829
70
0
0
VERTEX
8
Image
10
184.252945
20
51.141294
70
0
0
VERTEX
8
Image
10
185.177697
20
50.993445
70
0
0
VERTEX
8
Image
10
185.380663
20
50.919135
70
0
0
VERTEX
8
Image
10
187.248043
20
52.759349
70
0
0
VERTEX
8
Image
10
189.165973
20
54.632597
70
0
0
VERTEX
8
Image
10
200.009087
20
54.678330
70
0
0
VERTEX
8
Image
10
210.775999
20
54.691030
70
0
0
VERTEX
8
Image
10
210.857980
20
54.885938
70
0
0
VERTEX
8
Image
10
211.468806
20
55.713149
70
0
0
VERTEX
8
Image
10
212.388928
20
56.180391
70
0
0
VERTEX
8
Image
10
212.965743
20
56.221690
70
0
0
VERTEX
8
Image
10
213.568209
20
56.127102
70
0
0
VERTEX
8
Image
10
214.466932
20
55.565214
70
0
0
VERTEX
8
Image
10
215.001799
20
54.635063
70
0
0
VERTEX
8
Image
10
215.069824
20
54.043331
70
0
0
VERTEX
8
Image
10
215.001799
20
53.451599
70
0
0
VERTEX
8
Image
10
214.551781
20
52.613664
70
0
0
VERTEX
8
Image
10
213.810144
20
52.048515
70
0
0
VERTEX
8
Image
10
212.889543
20
51.853126
70
0
0
VERTEX
8
Image
10
211.918341
20
52.075516
70
0
0
VERTEX
8
Image
10
211.259099
20
52.568546
70
0
0
VERTEX
8
Image
10
210.840649
20
53.236445
70
0
0
VERTEX
8
Image
10
210.787238
20
53.382932
70
0
0
VERTEX
8
Image
10
200.243235
20
53.382932
70
0
0
VERTEX
8
Image
10
189.699230
20
53.382932
70
0
0
VERTEX
8
Image
10
187.999514
20
51.683073
70
0
0
VERTEX
8
Image
10
186.299798
20
49.983217
70
0
0
VERTEX
8
Image
10
186.368167
20
49.830873
70
0
0
VERTEX
8
Image
10
186.546950
20
48.949205
70
0
0
VERTEX
8
Image
10
186.363563
20
48.067036
70
0
0
VERTEX
8
Image
10
185.768303
20
47.278560
70
0
0
VERTEX
8
Image
10
184.898771
20
46.829536
70
0
0
VERTEX
8
Image
10
184.040585
20
46.779501
70
0
0
VERTEX
8
Image
10
184.040593
20
46.779501
70
0
0
SEQEND
8
Image
0
POLYLINE
8
Image
62
7
70
0
10
0.000000
20
0.000000
66
1
0
VERTEX
8
Image
10
163.689805
20
51.173817
70
0
0
VERTEX
8
Image
10
163.055155
20
51.338236
70
0
0
VERTEX
8
Image
10
162.513228
20
51.672263
70
0
0
VERTEX
8
Image
10
162.088676
20
52.155061
70
0
0
VERTEX
8
Image
10
161.806149
20
52.765800
70
0
0
VERTEX
8
Image
10
161.738127
20
53.357532
70
0
0
VERTEX
8
Image
10
161.806149
20
53.949264
70
0
0
VERTEX
8
Image
10
162.352383
20
54.892387
70
0
0
VERTEX
8
Image
10
163.270706
20
55.454799
70
0
0
VERTEX
8
Image
10
164.421359
20
55.493859
70
0
0
VERTEX
8
Image
10
165.105488
20
55.203526
70
0
0
VERTEX
8
Image
10
165.641247
20
54.719315
70
0
0
VERTEX
8
Image
10
165.990599
20
54.089121
70
0
0
VERTEX
8
Image
10
166.115502
20
53.360836
70
0
0
VERTEX
8
Image
10
165.918404
20
52.448465
70
0
0
VERTEX
8
Image
10
165.387766
20
51.725150
70
0
0
VERTEX
8
Image
10
164.614572
20
51.272924
70
0
0
VERTEX
8
Image
10
163.689805
20
51.173817
70
0
0
VERTEX
8
Image
10
163.689805
20
51.173817
70
0
0
SEQEND
8
Image
0
POLYLINE
8
Image
62
7
70
0
10
0.000000
20
0.000000
66
1
0
VERTEX
8
Image
10
169.018038
20
51.173552
70
0
0
VERTEX
8
Image
10
168.185502
20
51.447414
70
0
0
VERTEX
8
Image
10
167.522785
20
52.019035
70
0
0
VERTEX
8
Image
10
167.138266
20
52.798793
70
0
0
VERTEX
8
Image
10
167.138385
20
53.916392
70
0
0
VERTEX
8
Image
10
167.416454
20
54.528867
70
0
0
VERTEX
8
Image
10
167.853971
20
55.038565
70
0
0
VERTEX
8
Image
10
168.572949
20
55.446224
70
0
0
VERTEX
8
Image
10
168.630099
20
55.461041
70
0
0
VERTEX
8
Image
10
168.630099
20
56.398231
70
0
0
VERTEX
8
Image
10
168.630099
20
57.335418
70
0
0
VERTEX
8
Image
10
168.695922
20
57.467506
70
0
0
VERTEX
8
Image
10
175.268164
20
64.092365
70
0
0
VERTEX
8
Image
10
181.888882
20
70.639106
70
0
0
VERTEX
8
Image
10
182.003182
20
70.693076
70
0
0
VERTEX
8
Image
10
196.395243
20
70.699505
70
0
0
VERTEX
8
Image
10
210.787304
20
70.705935
70
0
0
VERTEX
8
Image
10
210.840546
20
70.851897
70
0
0
VERTEX
8
Image
10
211.447494
20
71.711117
70
0
0
VERTEX
8
Image
10
212.006544
20
72.059191
70
0
0
VERTEX
8
Image
10
212.652990
20
72.232668
70
0
0
VERTEX
8
Image
10
213.354449
20
72.196529
70
0
0
VERTEX
8
Image
10
214.004225
20
71.936742
70
0
0
VERTEX
8
Image
10
214.545138
20
71.487363
70
0
0
VERTEX
8
Image
10
214.920006
20
70.882451
70
0
0
VERTEX
8
Image
10
215.070895
20
70.045358
70
0
0
VERTEX
8
Image
10
214.871659
20
69.112058
70
0
0
VERTEX
8
Image
10
214.378573
20
68.439302
70
0
0
VERTEX
8
Image
10
213.695113
20
68.011566
70
0
0
VERTEX
8
Image
10
212.899116
20
67.859363
70
0
0
VERTEX
8
Image
10
212.068420
20
68.013205
70
0
0
VERTEX
8
Image
10
211.351728
20
68.491046
70
0
0
VERTEX
8
Image
10
210.851500
20
69.219859
70
0
0
VERTEX
8
Image
10
210.776774
20
69.397659
70
0
0
VERTEX
8
Image
10
196.609106
20
69.404035
70
0
0
VERTEX
8
Image
10
182.441437
20
69.410412
70
0
0
VERTEX
8
Image
10
176.189817
20
63.169518
70
0
0
VERTEX
8
Image
10
169.938197
20
56.928624
70
0
0
VERTEX
8
Image
10
169.931477
20
56.190596
70
0
0
VERTEX
8
Image
10
169.924756
20
55.452571
70
0
0
VERTEX
8
Image
10
170.058474
20
55.405645
70
0
0
VERTEX
8
Image
10
170.666961
20
55.039451
70
0
0
VERTEX
8
Image
10
171.149977
20
54.486867
70
0
0
VERTEX
8
Image
10
171.448731
20
53.580818
70
0
0
VERTEX
8
Image
10
171.325195
20
52.599225
70
0
0
VERTEX
8
Image
10
170.809009
20
51.801597
70
0
0
VERTEX
8
Image
10
170.005009
20
51.291762
70
0
0
VERTEX
8
Image
10
169.018033
20
51.173547
70
0
0
VERTEX
8
Image
10
169.018038
20
51.173552
70
0
0
SEQEND
8
Image
0
POLYLINE
8
Image
62
7
70
0
10
0.000000
20
0.000000
66
1
0
VERTEX
8
Image
10
179.700585
20
51.174875
70
0
0
VERTEX
8
Image
10
179.049541
20
51.362976
70
0
0
VERTEX
8
Image
10
178.470986
20
51.737826
70
0
0
VERTEX
8
Image
10
177.997801
20
52.363373
70
0
0
VERTEX
8
Image
10
177.777290
20
53.097733
70
0
0
VERTEX
8
Image
10
177.818786
20
53.862738
70
0
0
VERTEX
8
Image
10
178.131621
20
54.580223
70
0
0
VERTEX
8
Image
10
178.731852
20
55.176701
70
0
0
VERTEX
8
Image
10
179.510337
20
55.507964
70
0
0
VERTEX
8
Image
10
180.034685
20
55.534655
70
0
0
VERTEX
8
Image
10
180.829844
20
55.371310
70
0
0
VERTEX
8
Image
10
180.978307
20
55.304685
70
0
0
VERTEX
8
Image
10
184.868939
20
59.194270
70
0
0
VERTEX
8
Image
10
188.883782
20
63.138353
70
0
0
VERTEX
8
Image
10
189.007991
20
63.192852
70
0
0
VERTEX
8
Image
10
191.454732
20
63.188830
70
0
0
VERTEX
8
Image
10
193.901472
20
63.184808
70
0
0
VERTEX
8
Image
10
193.917400
20
63.255907
70
0
0
VERTEX
8
Image
10
194.290252
20
64.284239
70
0
0
VERTEX
8
Image
10
194.930705
20
65.130758
70
0
0
VERTEX
8
Image
10
195.699020
20
65.730406
70
0
0
VERTEX
8
Image
10
196.582777
20
66.094425
70
0
0
VERTEX
8
Image
10
197.538244
20
66.212355
70
0
0
VERTEX
8
Image
10
198.371559
20
66.126324
70
0
0
VERTEX
8
Image
10
199.152336
20
65.841677
70
0
0
VERTEX
8
Image
10
199.862315
20
65.390845
70
0
0
VERTEX
8
Image
10
200.439487
20
64.804161
70
0
0
VERTEX
8
Image
10
200.871634
20
64.097283
70
0
0
VERTEX
8
Image
10
201.146537
20
63.285871
70
0
0
VERTEX
8
Image
10
201.159528
20
61.841108
70
0
0
VERTEX
8
Image
10
200.771325
20
60.779566
70
0
0
VERTEX
8
Image
10
200.121344
20
59.910139
70
0
0
VERTEX
8
Image
10
199.249490
20
59.272347
70
0
0
VERTEX
8
Image
10
198.195667
20
58.905710
70
0
0
VERTEX
8
Image
10
196.824069
20
58.917563
70
0
0
VERTEX
8
Image
10
195.826043
20
59.271532
70
0
0
VERTEX
8
Image
10
194.986101
20
59.884223
70
0
0
VERTEX
8
Image
10
194.309856
20
60.753963
70
0
0
VERTEX
8
Image
10
193.917939
20
61.822047
70
0
0
VERTEX
8
Image
10
193.902117
20
61.891897
70
0
0
VERTEX
8
Image
10
191.661023
20
61.891897
70
0
0
VERTEX
8
Image
10
189.419928
20
61.891897
70
0
0
VERTEX
8
Image
10
185.663585
20
58.135490
70
0
0
VERTEX
8
Image
10
181.907239
20
54.379081
70
0
0
VERTEX
8
Image
10
181.984233
20
54.192145
70
0
0
VERTEX
8
Image
10
182.142723
20
53.352494
70
0
0
VERTEX
8
Image
10
181.930369
20
52.406115
70
0
0
VERTEX
8
Image
10
181.545453
20
51.843391
70
0
0
VERTEX
8
Image
10
181.019068
20
51.435997
70
0
0
VERTEX
8
Image
10
180.390892
20
51.205844
70
0
0
VERTEX
8
Image
10
179.700604
20
51.174844
70
0
0
VERTEX
8
Image
10
179.700585
20
51.174875
70
0
0
SEQEND
8
Image
0
POLYLINE
8
Image
62
7
70
0
10
0.000000
20
0.000000
66
1
0
VERTEX
8
Image
10
197.950332
20
60.429864
70
0
0
VERTEX
8
Image
10
198.541254
20
60.640768
70
0
0
VERTEX
8
Image
10
199.042802
20
61.012608
70
0
0
VERTEX
8
Image
10
199.421829
20
61.512567
70
0
0
VERTEX
8
Image
10
199.645190
20
62.107828
70
0
0
VERTEX
8
Image
10
199.667994
20
62.735145
70
0
0
VERTEX
8
Image
10
199.514992
20
63.368686
70
0
0
VERTEX
8
Image
10
199.034010
20
64.066070
70
0
0
VERTEX
8
Image
10
198.325794
20
64.530761
70
0
0
VERTEX
8
Image
10
197.752119
20
64.671185
70
0
0
VERTEX
8
Image
10
197.168180
20
64.647328
70
0
0
VERTEX
8
Image
10
196.519843
20
64.423778
70
0
0
VERTEX
8
Image
10
195.964470
20
63.987048
70
0
0
VERTEX
8
Image
10
195.630278
20
63.509856
70
0
0
VERTEX
8
Image
10
195.396313
20
62.552328
70
0
0
VERTEX
8
Image
10
195.472612
20
61.957042
70
0
0
VERTEX
8
Image
10
195.698265
20
61.424431
70
0
0
VERTEX
8
Image
10
196.059948
20
60.976730
70
0
0
VERTEX
8
Image
10
196.544338
20
60.636176
70
0
0
VERTEX
8
Image
10
197.205063
20
60.410923
70
0
0
VERTEX
8
Image
10
197.950332
20
60.429867
70
0
0
VERTEX
8
Image
10
197.950332
20
60.429864
70
0
0
SEQEND
8
Image
 0 
ENDSEC
 0 
EOF